<svg id="svg" version="1.1" xmlns="http://www.w3.org/2000/svg" xmlns:xlink="http://www.w3.org/1999/xlink" width="170" height="166.969696969697" viewBox="0, 0, 400,396.969696969697"><g id="svgg"><path id="path0" d="M114.796 122.631 C 114.250 122.730,113.430 123.157,112.973 123.580 C 112.048 124.437,109.998 125.124,108.364 125.124 C 107.603 125.124,106.981 125.529,106.231 126.512 C 105.600 127.339,104.585 128.076,103.719 128.336 C 102.780 128.617,101.946 129.257,101.367 130.140 C 100.874 130.893,100.034 131.675,99.501 131.878 C 98.924 132.097,98.424 132.693,98.265 133.352 C 97.911 134.817,96.609 136.643,95.920 136.643 C 95.365 136.643,94.545 138.913,94.540 140.461 C 94.539 140.922,94.081 141.973,93.522 142.797 C 91.629 145.586,91.114 155.887,92.775 157.723 C 93.504 158.528,95.312 163.478,95.324 164.700 C 95.329 165.209,95.650 165.631,96.125 165.755 C 96.587 165.876,97.234 166.700,97.676 167.731 C 98.135 168.803,98.760 169.585,99.262 169.717 C 99.717 169.836,100.266 170.397,100.482 170.965 C 100.698 171.532,101.043 171.996,101.249 171.996 C 101.455 171.996,102.368 172.711,103.277 173.585 C 104.187 174.459,105.283 175.174,105.713 175.174 C 106.771 175.174,108.715 176.215,109.168 177.025 C 110.387 179.204,129.889 178.969,132.440 176.745 C 133.114 176.158,134.056 175.556,134.536 175.406 C 135.015 175.257,136.431 174.339,137.683 173.367 C 138.936 172.394,140.197 171.599,140.487 171.599 C 140.776 171.599,141.013 171.362,141.013 171.072 C 141.013 170.783,141.832 169.492,142.832 168.203 C 143.833 166.915,144.900 165.319,145.204 164.658 C 145.509 163.997,146.134 162.993,146.593 162.427 C 147.404 161.428,148.739 151.219,148.298 149.381 C 148.216 149.039,147.999 146.921,147.816 144.675 C 147.552 141.432,147.318 140.410,146.678 139.710 C 145.621 138.553,144.588 136.481,144.588 135.517 C 144.588 135.095,144.145 134.458,143.603 134.104 C 143.061 133.749,142.348 132.936,142.019 132.298 C 141.689 131.661,141.057 131.024,140.616 130.884 C 140.174 130.744,139.553 130.126,139.235 129.512 C 138.917 128.898,138.189 128.277,137.616 128.134 C 137.044 127.990,136.110 127.407,135.541 126.838 C 134.950 126.247,133.561 125.557,132.301 125.228 C 131.088 124.911,129.111 124.133,127.908 123.499 C 125.749 122.361,118.829 121.903,114.796 122.631 M273.088 139.208 C 272.433 139.490,269.484 139.941,266.534 140.209 C 262.022 140.619,260.932 140.850,259.658 141.671 C 258.825 142.207,256.948 142.935,255.487 143.288 C 254.026 143.642,252.330 144.343,251.719 144.846 C 251.108 145.348,249.708 146.027,248.608 146.354 C 247.450 146.698,246.274 147.371,245.817 147.953 C 245.382 148.505,244.716 148.957,244.336 148.957 C 243.396 148.957,241.907 150.408,241.907 151.324 C 241.907 151.734,241.799 152.350,241.668 152.693 C 241.018 154.387,246.957 154.290,248.834 152.576 C 249.868 151.632,250.538 151.435,254.376 150.949 C 256.089 150.732,258.051 150.217,258.735 149.804 C 263.247 147.087,294.638 147.057,299.244 149.766 C 299.946 150.179,302.021 150.691,303.967 150.932 C 307.964 151.427,308.546 151.595,309.633 152.567 C 311.510 154.248,316.187 154.213,316.187 152.519 C 316.187 151.042,315.422 149.857,314.049 149.205 C 313.274 148.837,312.386 148.174,312.076 147.731 C 311.761 147.281,310.418 146.595,309.031 146.175 C 307.667 145.762,306.171 145.079,305.708 144.657 C 305.245 144.235,303.498 143.592,301.825 143.227 C 299.904 142.808,298.424 142.230,297.805 141.656 C 296.949 140.863,296.129 140.688,291.312 140.272 C 288.280 140.009,284.727 139.535,283.416 139.218 C 280.505 138.514,274.711 138.509,273.088 139.208 M115.591 231.537 L 114.598 231.813 114.491 241.038 L 114.385 250.262 115.411 250.653 C 116.045 250.894,126.411 251.043,142.528 251.043 C 172.705 251.044,171.193 250.869,171.663 254.419 C 171.808 255.511,171.942 261.094,171.961 266.825 C 171.980 272.556,172.173 278.454,172.389 279.933 C 172.605 281.412,172.958 285.074,173.173 288.071 C 173.475 292.271,173.782 294.047,174.514 295.817 C 175.036 297.080,175.781 299.783,176.170 301.824 C 176.622 304.203,177.182 305.914,177.728 306.591 C 178.753 307.859,179.543 309.601,179.543 310.591 C 179.543 310.988,180.258 312.365,181.131 313.650 C 182.004 314.936,182.719 316.220,182.720 316.503 C 182.721 316.786,183.167 317.463,183.712 318.009 C 184.257 318.554,184.995 319.573,185.351 320.274 C 186.130 321.809,193.005 328.603,195.233 330.040 C 196.107 330.604,197.190 331.443,197.638 331.905 C 198.087 332.366,199.177 332.859,200.060 333.000 C 200.943 333.141,202.311 333.770,203.101 334.397 C 204.337 335.380,205.101 335.602,208.623 335.999 C 210.872 336.253,213.694 336.723,214.896 337.044 C 217.774 337.812,225.444 337.835,227.260 337.080 C 227.997 336.774,229.851 336.407,231.380 336.264 C 235.405 335.889,238.020 335.257,238.928 334.439 C 239.364 334.046,240.643 333.363,241.768 332.921 C 242.893 332.479,244.270 331.662,244.828 331.104 C 245.386 330.546,246.074 330.085,246.357 330.079 C 246.640 330.073,247.855 328.988,249.057 327.669 C 250.258 326.349,251.647 324.823,252.142 324.278 C 252.637 323.733,253.578 322.226,254.233 320.928 C 254.888 319.631,255.578 318.570,255.767 318.570 C 256.170 318.570,256.708 317.166,257.366 314.399 C 257.626 313.307,258.253 311.519,258.758 310.427 C 260.800 306.012,261.363 295.168,261.367 260.129 L 261.370 231.678 260.129 231.430 C 258.422 231.089,116.827 231.193,115.591 231.537 M245.724 251.686 C 246.555 252.080,247.193 252.733,247.373 253.374 C 248.017 255.666,247.706 282.390,246.987 286.594 C 246.613 288.779,246.113 292.175,245.876 294.141 C 245.639 296.107,245.105 298.431,244.691 299.305 C 244.277 300.179,243.558 301.920,243.094 303.174 C 242.629 304.429,241.948 305.680,241.580 305.955 C 241.211 306.230,240.560 307.119,240.134 307.931 C 239.707 308.742,238.884 309.602,238.305 309.842 C 237.726 310.082,236.881 310.780,236.428 311.394 C 235.821 312.214,234.913 312.696,232.995 313.215 C 231.561 313.604,230.387 314.054,230.387 314.216 C 230.387 316.455,213.042 316.814,210.097 314.637 C 209.488 314.187,208.187 313.639,207.206 313.419 C 204.696 312.856,203.483 312.238,202.777 311.160 C 202.441 310.648,201.822 310.228,201.402 310.228 C 200.622 310.228,195.829 305.940,195.829 305.242 C 195.829 305.031,195.462 304.629,195.014 304.349 C 194.565 304.069,193.847 303.022,193.419 302.023 C 192.991 301.024,192.304 299.734,191.893 299.156 C 191.481 298.579,190.929 297.306,190.666 296.329 C 190.403 295.351,189.744 293.677,189.203 292.608 C 188.473 291.168,188.079 289.416,187.681 285.848 C 187.387 283.200,186.913 279.513,186.630 277.656 C 186.305 275.533,186.111 270.307,186.106 263.571 L 186.097 252.862 187.447 251.953 L 188.797 251.043 216.583 251.043 C 241.367 251.043,244.515 251.112,245.724 251.686 M204.371 266.533 C 203.519 267.405,202.522 268.215,202.156 268.331 C 200.471 268.866,199.595 274.440,200.935 276.095 L 201.672 277.005 201.963 275.458 C 202.531 272.427,204.840 269.660,207.329 269.027 C 208.732 268.670,209.688 266.837,209.172 265.493 C 208.700 264.261,206.023 264.841,204.371 266.533 M222.795 266.861 C 219.522 270.458,219.381 270.762,218.060 277.061 C 217.785 278.371,217.339 279.807,217.069 280.252 C 216.800 280.696,216.272 282.323,215.897 283.867 C 215.075 287.246,215.090 287.221,213.152 288.530 C 208.715 291.526,201.787 288.290,201.787 283.220 C 201.787 281.888,201.133 282.640,200.661 284.514 C 200.085 286.800,200.777 289.111,202.461 290.527 C 203.160 291.114,203.838 291.931,203.968 292.342 C 204.411 293.735,211.400 294.511,213.749 293.428 C 215.556 292.595,217.303 290.171,217.880 287.695 C 218.174 286.434,218.873 284.419,219.432 283.217 C 219.991 282.016,220.454 280.586,220.460 280.040 C 220.480 278.182,221.643 273.487,222.181 273.088 C 222.477 272.870,223.015 272.116,223.379 271.412 C 224.500 269.243,229.297 268.338,232.154 269.756 C 233.252 270.302,234.756 273.331,234.756 274.999 C 234.757 276.239,235.434 275.363,235.898 273.522 C 236.425 271.429,235.399 268.380,234.021 267.943 C 233.583 267.804,232.861 267.073,232.416 266.318 L 231.606 264.945 228.072 264.945 L 224.538 264.945 222.795 266.861 M234.579 282.687 C 234.263 284.415,233.690 285.419,231.526 288.029 C 229.642 290.302,230.445 292.088,232.691 290.621 C 233.281 290.236,234.053 289.828,234.406 289.715 C 235.917 289.228,236.771 283.075,235.503 281.807 C 234.908 281.212,234.836 281.281,234.579 282.687 " stroke="none" fill="#0a0a09" fill-rule="evenodd"></path><path id="path1" d="M180.991 3.602 C 178.620 3.771,176.207 4.089,175.629 4.308 C 173.628 5.067,170.580 5.577,164.824 6.116 C 160.722 6.500,158.588 6.885,157.476 7.441 C 155.931 8.214,153.232 8.822,148.961 9.360 C 147.748 9.512,145.897 10.131,144.791 10.754 C 143.441 11.514,141.838 11.993,139.813 12.243 C 137.720 12.501,136.386 12.910,135.356 13.608 C 134.548 14.157,132.636 14.888,131.107 15.233 C 129.578 15.579,127.651 16.304,126.825 16.845 C 125.999 17.386,124.429 18.039,123.337 18.297 C 122.244 18.555,120.699 19.202,119.903 19.735 C 119.107 20.269,117.543 20.946,116.429 21.240 C 115.314 21.534,113.856 22.233,113.190 22.794 C 112.523 23.355,111.072 24.083,109.964 24.412 C 108.857 24.741,107.505 25.456,106.960 26.001 C 106.414 26.546,105.348 27.108,104.589 27.250 C 103.830 27.393,102.733 27.958,102.151 28.507 C 101.569 29.056,100.370 29.829,99.487 30.226 C 98.604 30.623,97.353 31.402,96.706 31.958 C 96.060 32.513,95.318 32.968,95.057 32.969 C 94.341 32.969,91.856 34.523,91.630 35.112 C 91.521 35.396,90.567 36.033,89.509 36.528 C 88.452 37.022,87.444 37.675,87.269 37.979 C 87.095 38.282,86.380 38.822,85.680 39.179 C 84.981 39.536,83.653 40.519,82.730 41.364 C 81.806 42.209,80.868 42.900,80.645 42.900 C 80.423 42.900,79.577 43.525,78.766 44.290 C 77.956 45.055,77.116 45.680,76.901 45.680 C 76.685 45.680,75.963 46.228,75.295 46.897 C 74.628 47.566,72.741 49.219,71.102 50.571 C 66.505 54.364,62.558 58.154,55.503 65.554 C 50.630 70.665,48.911 72.628,48.332 73.743 C 48.008 74.366,47.190 75.283,46.513 75.782 C 45.837 76.280,45.283 76.952,45.283 77.275 C 45.283 77.598,44.911 78.174,44.456 78.554 C 44.002 78.934,43.304 79.871,42.906 80.636 C 42.508 81.400,41.701 82.473,41.112 83.019 C 40.524 83.565,39.701 84.676,39.285 85.488 C 38.868 86.300,38.177 87.152,37.748 87.382 C 37.319 87.611,36.776 88.514,36.540 89.389 C 36.305 90.263,35.747 91.198,35.301 91.467 C 34.854 91.736,33.945 93.029,33.281 94.340 C 32.616 95.650,31.941 96.812,31.780 96.922 C 31.619 97.031,31.082 97.925,30.586 98.908 C 30.091 99.891,29.206 101.321,28.621 102.085 C 28.035 102.850,27.338 104.229,27.073 105.149 C 26.808 106.070,26.236 107.071,25.804 107.374 C 25.371 107.677,24.751 108.820,24.427 109.914 C 24.102 111.008,23.314 112.560,22.675 113.363 C 22.037 114.167,21.396 115.530,21.250 116.394 C 21.104 117.257,20.534 118.628,19.983 119.440 C 19.432 120.252,18.723 121.907,18.407 123.119 C 18.092 124.331,17.375 126.106,16.814 127.063 C 16.253 128.021,15.542 129.885,15.233 131.207 C 14.925 132.529,14.164 134.516,13.543 135.624 C 12.784 136.976,12.332 138.474,12.164 140.188 C 11.994 141.924,11.546 143.393,10.761 144.783 C 10.053 146.038,9.501 147.735,9.330 149.182 C 8.873 153.045,7.994 156.854,7.323 157.879 C 6.900 158.524,6.511 160.836,6.137 164.921 C 5.831 168.266,5.206 172.433,4.749 174.181 C 2.597 182.407,2.592 215.168,4.742 223.403 C 5.193 225.132,5.813 229.172,6.119 232.380 C 6.515 236.526,6.903 238.661,7.460 239.762 C 7.891 240.614,8.463 242.651,8.730 244.290 C 8.997 245.929,9.376 248.238,9.572 249.421 C 9.768 250.605,10.184 251.857,10.498 252.203 C 11.365 253.161,11.925 254.910,12.287 257.788 C 12.505 259.526,12.954 260.899,13.632 261.897 C 14.191 262.722,14.845 264.415,15.085 265.661 C 15.495 267.793,15.952 268.941,17.553 271.864 C 17.921 272.537,18.346 273.862,18.496 274.807 C 18.646 275.753,19.087 276.825,19.475 277.191 C 19.863 277.556,20.558 279.007,21.018 280.416 C 21.479 281.824,22.202 283.346,22.627 283.797 C 23.541 284.771,24.628 287.240,24.628 288.346 C 24.628 288.778,24.958 289.364,25.363 289.650 C 26.197 290.238,27.408 292.408,27.408 293.313 C 27.408 293.644,27.939 294.520,28.588 295.259 C 29.237 295.998,30.116 297.414,30.541 298.407 C 30.967 299.399,31.518 300.336,31.766 300.489 C 32.014 300.643,32.631 301.690,33.138 302.817 C 33.644 303.944,34.618 305.391,35.301 306.033 C 35.985 306.674,36.544 307.531,36.544 307.937 C 36.544 308.343,37.034 309.159,37.632 309.750 C 38.230 310.341,39.057 311.450,39.469 312.214 C 39.880 312.979,40.821 314.194,41.559 314.915 C 42.296 315.635,42.900 316.471,42.900 316.773 C 42.900 317.074,43.331 317.660,43.859 318.075 C 44.386 318.490,45.092 319.485,45.427 320.288 C 45.762 321.090,46.489 321.952,47.042 322.204 C 47.596 322.456,48.161 323.019,48.300 323.455 C 48.874 325.263,66.157 343.069,71.319 347.170 C 72.556 348.153,74.272 349.628,75.131 350.447 C 75.991 351.266,76.924 351.936,77.205 351.936 C 77.486 351.936,78.122 352.368,78.617 352.895 C 79.113 353.423,80.306 354.352,81.269 354.961 C 82.231 355.569,83.019 356.196,83.019 356.353 C 83.019 356.510,83.689 357.043,84.508 357.538 C 85.328 358.033,86.585 358.941,87.303 359.556 C 88.020 360.172,88.837 360.675,89.118 360.675 C 89.399 360.675,90.358 361.300,91.250 362.063 C 92.141 362.826,93.673 363.794,94.654 364.215 C 95.634 364.635,96.559 365.176,96.707 365.417 C 96.856 365.657,97.904 366.317,99.035 366.882 C 100.167 367.448,101.539 368.315,102.085 368.810 C 102.632 369.304,103.585 369.828,104.203 369.974 C 104.822 370.120,106.227 370.858,107.326 371.615 C 108.425 372.371,109.581 372.989,109.895 372.989 C 110.678 372.989,112.827 374.108,113.865 375.055 C 114.336 375.485,115.498 376.010,116.447 376.221 C 117.396 376.432,118.798 377.025,119.563 377.538 C 120.328 378.052,122.026 378.771,123.337 379.136 C 124.647 379.502,126.346 380.221,127.110 380.735 C 127.875 381.249,129.631 381.887,131.012 382.153 C 132.394 382.419,134.155 383.065,134.927 383.589 C 135.785 384.172,137.546 384.753,139.468 385.089 C 141.195 385.390,143.737 386.187,145.119 386.860 C 146.500 387.533,148.181 388.083,148.854 388.083 C 150.852 388.083,155.775 389.155,157.696 390.008 C 158.924 390.553,161.143 390.941,164.782 391.246 C 167.785 391.498,171.914 392.157,174.315 392.767 L 178.550 393.843 198.610 393.843 L 218.669 393.843 222.904 392.767 C 225.310 392.155,229.428 391.499,232.438 391.247 C 236.398 390.916,238.287 390.567,239.921 389.865 C 241.842 389.039,243.676 388.647,249.028 387.919 C 249.777 387.817,251.475 387.193,252.802 386.533 C 254.264 385.805,256.314 385.188,258.011 384.965 C 259.866 384.720,261.294 384.267,262.252 383.617 C 263.046 383.078,264.826 382.417,266.207 382.147 C 267.589 381.878,268.987 381.418,269.315 381.125 C 270.155 380.375,273.207 379.119,274.997 378.787 C 275.829 378.632,276.880 378.135,277.332 377.683 C 277.785 377.230,279.161 376.599,280.389 376.281 C 281.617 375.963,282.979 375.382,283.416 374.988 C 284.382 374.119,286.222 373.190,287.656 372.846 C 288.240 372.706,289.251 372.143,289.903 371.594 C 290.556 371.045,291.860 370.324,292.803 369.992 C 293.745 369.659,294.878 369.049,295.321 368.636 C 295.765 368.223,297.059 367.418,298.197 366.849 C 299.336 366.279,300.383 365.625,300.525 365.396 C 300.667 365.167,301.612 364.625,302.626 364.193 C 303.639 363.760,305.005 362.903,305.660 362.287 C 306.316 361.671,307.522 360.857,308.342 360.479 C 309.161 360.100,309.831 359.649,309.831 359.476 C 309.831 359.304,310.791 358.621,311.963 357.959 C 313.136 357.297,314.200 356.484,314.327 356.151 C 314.455 355.819,315.277 355.181,316.154 354.734 C 317.031 354.286,317.927 353.588,318.144 353.181 C 318.362 352.775,319.127 352.202,319.846 351.908 C 320.564 351.614,321.688 350.860,322.344 350.232 C 322.999 349.604,325.412 347.447,327.706 345.438 C 332.510 341.231,342.370 331.399,345.289 327.905 C 346.384 326.594,347.499 325.392,347.768 325.233 C 348.037 325.074,348.479 324.410,348.749 323.756 C 349.020 323.103,349.596 322.456,350.029 322.319 C 350.463 322.181,351.072 321.459,351.383 320.714 C 351.695 319.969,352.483 318.884,353.135 318.303 C 353.786 317.722,354.320 317.031,354.320 316.767 C 354.320 316.503,355.019 315.522,355.875 314.586 C 356.730 313.650,357.664 312.421,357.950 311.855 C 358.236 311.288,358.966 310.237,359.573 309.519 C 360.179 308.802,360.675 307.984,360.675 307.702 C 360.675 307.420,361.146 306.756,361.722 306.226 C 362.298 305.697,363.173 304.362,363.666 303.261 C 364.160 302.160,364.875 301.001,365.256 300.685 C 365.636 300.369,366.286 299.321,366.700 298.357 C 367.113 297.392,367.982 295.998,368.631 295.259 C 369.280 294.520,369.811 293.644,369.811 293.313 C 369.811 292.560,370.876 290.425,371.776 289.374 C 372.151 288.937,372.671 287.828,372.932 286.910 C 373.194 285.991,373.813 284.740,374.308 284.129 C 374.803 283.518,375.523 281.990,375.907 280.733 C 376.292 279.475,377.043 277.974,377.578 277.398 C 378.113 276.821,378.550 276.038,378.550 275.658 C 378.550 274.420,379.858 270.725,380.588 269.901 C 380.980 269.459,381.587 267.850,381.938 266.326 C 382.289 264.802,382.989 262.840,383.494 261.966 C 384.000 261.092,384.631 259.074,384.897 257.481 C 385.168 255.857,385.887 253.636,386.533 252.424 C 387.281 251.022,387.689 249.668,387.693 248.568 C 387.703 246.120,388.681 241.864,389.685 239.895 C 390.361 238.570,390.677 236.794,391.125 231.810 C 391.453 228.147,392.050 224.236,392.524 222.642 C 394.486 216.035,394.620 182.789,392.714 175.571 C 392.154 173.451,391.461 169.085,391.132 165.608 C 390.701 161.040,390.321 158.921,389.683 157.520 C 388.678 155.315,387.706 151.045,387.687 148.759 C 387.680 147.885,387.420 146.723,387.108 146.177 C 385.831 143.937,385.282 142.371,384.896 139.872 C 384.673 138.424,384.052 136.419,383.517 135.417 C 382.981 134.415,382.288 132.502,381.976 131.164 C 381.664 129.827,381.061 128.234,380.635 127.624 C 379.799 126.425,378.550 123.016,378.550 121.930 C 378.550 121.562,378.031 120.608,377.396 119.809 C 376.762 119.011,376.019 117.422,375.745 116.279 C 375.471 115.136,374.756 113.575,374.156 112.810 C 373.556 112.046,372.946 110.848,372.801 110.150 C 372.656 109.451,372.026 108.235,371.400 107.448 C 370.775 106.661,370.143 105.445,369.996 104.746 C 369.849 104.047,369.244 102.939,368.650 102.284 C 368.057 101.629,367.236 100.288,366.825 99.305 C 366.415 98.322,365.735 97.177,365.314 96.761 C 364.894 96.345,364.138 95.074,363.634 93.935 C 363.131 92.796,362.433 91.755,362.084 91.621 C 361.734 91.487,361.120 90.611,360.719 89.675 C 360.318 88.739,359.684 87.719,359.310 87.409 C 358.937 87.099,358.292 86.180,357.877 85.367 C 357.462 84.554,356.693 83.550,356.168 83.137 C 355.643 82.724,354.841 81.657,354.386 80.766 C 353.931 79.874,353.293 79.042,352.967 78.917 C 352.642 78.793,352.071 78.100,351.698 77.379 C 351.326 76.658,350.585 75.621,350.052 75.074 C 349.520 74.528,348.454 73.277,347.684 72.294 C 346.541 70.835,340.335 63.963,338.579 62.214 C 332.144 55.800,324.621 48.964,323.108 48.155 C 322.589 47.878,321.975 47.297,321.743 46.864 C 321.512 46.431,320.700 45.816,319.940 45.499 C 319.181 45.181,318.450 44.638,318.317 44.291 C 318.184 43.944,317.427 43.328,316.634 42.921 C 315.842 42.515,314.747 41.701,314.201 41.112 C 313.654 40.524,312.547 39.703,311.739 39.289 C 310.932 38.875,310.127 38.279,309.952 37.966 C 309.776 37.652,308.796 37.037,307.774 36.599 C 306.751 36.160,305.738 35.471,305.521 35.065 C 305.304 34.660,304.040 33.827,302.712 33.214 C 301.384 32.601,300.298 31.946,300.298 31.759 C 300.298 31.571,299.449 31.044,298.411 30.586 C 297.373 30.129,295.899 29.263,295.134 28.662 C 294.369 28.060,292.987 27.347,292.062 27.077 C 291.137 26.807,290.199 26.247,289.978 25.834 C 289.748 25.404,288.651 24.813,287.416 24.454 C 286.228 24.109,284.706 23.364,284.034 22.798 C 283.362 22.232,281.794 21.504,280.549 21.179 C 279.305 20.854,277.773 20.156,277.147 19.629 C 276.520 19.101,275.669 18.669,275.258 18.669 C 274.162 18.669,270.256 17.140,269.729 16.505 C 269.480 16.205,267.955 15.666,266.340 15.307 C 264.724 14.947,262.726 14.194,261.898 13.632 C 260.831 12.908,259.525 12.504,257.407 12.243 C 255.399 11.995,253.768 11.510,252.433 10.764 C 250.956 9.939,249.307 9.492,246.004 9.019 C 243.357 8.641,240.884 8.039,239.887 7.530 C 238.623 6.885,236.742 6.536,232.215 6.104 C 228.916 5.789,224.786 5.170,223.039 4.729 C 217.275 3.274,194.205 2.655,180.991 3.602 M130.685 121.121 C 131.231 121.421,132.184 122.088,132.801 122.601 C 133.419 123.115,134.630 123.649,135.493 123.786 C 136.595 123.963,137.302 124.376,137.872 125.177 C 138.319 125.803,138.933 126.316,139.239 126.316 C 140.273 126.316,146.165 132.742,146.595 134.339 C 146.815 135.153,147.318 136.050,147.714 136.331 C 148.719 137.044,149.205 138.129,149.486 140.281 C 149.618 141.299,150.107 142.861,150.572 143.753 C 152.218 146.913,152.334 155.128,150.765 157.522 C 150.401 158.079,149.840 159.904,149.520 161.579 C 149.111 163.716,148.650 164.925,147.975 165.629 C 147.446 166.182,146.736 167.298,146.396 168.110 C 146.057 168.923,145.304 169.836,144.723 170.141 C 144.142 170.445,143.382 171.300,143.033 172.040 C 142.636 172.884,142.064 173.434,141.503 173.514 C 140.994 173.586,140.348 174.143,140.007 174.801 C 139.677 175.439,138.652 176.344,137.728 176.813 C 136.804 177.282,135.563 178.071,134.971 178.566 C 134.264 179.156,132.897 179.631,130.998 179.944 C 129.091 180.259,127.787 180.713,127.178 181.274 C 125.731 182.604,115.460 182.566,113.644 181.224 C 112.951 180.712,111.203 180.091,109.596 179.787 C 107.469 179.385,106.557 179.005,105.916 178.251 C 105.448 177.700,104.481 177.059,103.768 176.826 C 102.003 176.250,97.971 172.642,96.314 170.155 C 95.566 169.034,94.707 168.021,94.405 167.905 C 94.102 167.789,93.644 166.855,93.385 165.829 C 93.127 164.803,92.367 163.281,91.697 162.447 C 89.240 159.389,89.195 142.333,91.638 139.686 C 92.283 138.987,93.016 137.555,93.293 136.452 C 93.627 135.123,94.220 134.079,95.099 133.274 C 95.819 132.614,96.533 131.682,96.685 131.202 C 96.837 130.722,97.283 130.227,97.676 130.102 C 98.069 129.977,98.962 129.164,99.660 128.294 C 100.359 127.425,101.134 126.713,101.381 126.713 C 101.628 126.713,102.398 126.094,103.091 125.337 C 104.002 124.343,104.824 123.885,106.053 123.689 C 107.096 123.522,108.283 122.952,109.120 122.217 C 109.872 121.557,111.144 120.881,111.946 120.713 C 114.533 120.175,129.561 120.502,130.685 121.121 M287.277 136.394 C 288.964 136.670,290.662 137.183,291.051 137.533 C 291.503 137.941,293.138 138.323,295.591 138.596 C 299.843 139.068,300.337 139.207,302.156 140.440 C 302.849 140.910,304.531 141.514,305.893 141.782 C 307.656 142.129,308.688 142.589,309.480 143.381 C 310.092 143.993,311.091 144.610,311.701 144.753 C 313.792 145.242,314.957 145.861,315.581 146.813 C 315.924 147.337,316.442 147.766,316.731 147.766 C 319.214 147.766,320.353 155.613,318.131 157.412 C 317.052 158.286,315.367 158.103,313.780 156.940 C 313.220 156.530,311.378 155.887,309.685 155.510 C 307.880 155.109,306.165 154.454,305.538 153.927 C 304.652 153.183,303.658 152.950,299.732 152.568 C 296.186 152.222,294.257 151.810,292.056 150.929 L 289.116 149.752 278.917 149.769 C 271.260 149.782,268.373 149.922,267.329 150.331 C 263.262 151.922,262.037 152.220,257.895 152.626 C 254.237 152.984,253.307 153.204,252.996 153.785 C 252.610 154.506,249.902 155.434,246.773 155.917 C 245.844 156.060,245.084 156.338,245.084 156.534 C 245.084 157.877,240.379 158.464,239.287 157.257 C 237.981 155.814,238.264 149.869,239.691 148.781 C 240.279 148.332,241.373 147.393,242.121 146.694 C 243.302 145.591,245.557 144.597,246.897 144.590 C 247.129 144.589,247.826 144.059,248.446 143.412 C 249.231 142.592,250.233 142.099,251.758 141.783 C 252.960 141.533,254.772 140.819,255.784 140.196 C 257.208 139.320,258.467 138.961,261.351 138.611 C 263.400 138.362,265.316 137.918,265.609 137.625 C 267.216 136.018,280.412 135.269,287.277 136.394 M263.448 229.501 L 264.747 230.799 264.872 256.909 C 265.033 290.319,264.436 303.961,262.670 307.249 C 262.284 307.969,261.803 310.225,261.171 314.288 C 261.045 315.101,260.534 316.263,260.035 316.870 C 259.537 317.477,258.719 319.002,258.217 320.258 C 257.716 321.514,257.152 322.542,256.963 322.542 C 256.774 322.542,256.256 323.255,255.812 324.127 C 255.094 325.534,252.703 328.459,251.043 329.963 C 249.048 331.769,245.627 334.189,244.553 334.554 C 243.862 334.789,242.734 335.468,242.047 336.063 C 240.936 337.023,237.401 338.034,235.153 338.034 C 234.860 338.034,234.320 338.306,233.953 338.638 C 231.339 341.003,210.947 341.053,208.184 338.701 C 207.834 338.403,206.048 337.872,204.215 337.522 C 201.875 337.075,200.574 336.603,199.846 335.937 C 199.275 335.416,198.015 334.763,197.045 334.487 C 196.075 334.211,194.822 333.492,194.259 332.890 C 193.697 332.289,192.685 331.511,192.010 331.162 C 191.335 330.813,190.493 330.085,190.139 329.544 C 189.785 329.003,189.177 328.457,188.789 328.330 C 188.401 328.204,187.680 327.475,187.186 326.711 C 186.692 325.948,186.020 325.323,185.691 325.323 C 185.362 325.323,184.744 324.742,184.318 324.032 C 183.892 323.322,183.172 322.294,182.718 321.748 C 181.311 320.055,178.459 315.477,178.011 314.193 C 177.777 313.521,177.222 312.510,176.778 311.945 C 176.334 311.381,175.604 309.686,175.155 308.179 C 174.706 306.672,173.986 304.840,173.554 304.108 C 172.650 302.576,171.616 298.088,171.606 295.654 C 171.602 294.738,171.445 293.894,171.257 293.778 C 169.721 292.828,168.848 283.337,168.825 267.329 C 168.817 261.102,168.699 255.338,168.563 254.518 L 168.317 253.029 142.649 253.026 C 116.450 253.024,112.653 252.842,111.700 251.545 C 111.303 251.004,111.213 248.505,111.303 240.577 L 111.420 230.311 112.594 229.375 C 114.262 228.046,109.518 228.121,189.168 228.164 L 262.150 228.203 263.448 229.501 M189.178 266.236 C 189.346 279.025,189.384 279.557,190.387 283.019 C 190.956 284.985,191.606 288.081,191.830 289.898 C 192.103 292.105,192.499 293.533,193.025 294.201 C 193.457 294.750,194.157 296.124,194.580 297.252 C 195.003 298.381,195.993 300.261,196.781 301.430 C 197.568 302.599,198.213 303.788,198.213 304.072 C 198.213 304.356,198.842 304.960,199.612 305.415 C 200.382 305.869,201.119 306.521,201.251 306.863 C 201.382 307.205,202.367 307.929,203.440 308.473 C 204.512 309.016,205.734 309.805,206.155 310.226 C 208.372 312.443,221.154 313.662,227.011 312.214 C 228.759 311.783,230.584 311.427,231.067 311.425 C 231.550 311.422,232.300 311.039,232.734 310.574 C 233.167 310.109,234.132 309.349,234.877 308.886 C 236.544 307.851,238.517 305.602,238.928 304.270 C 239.097 303.724,239.630 302.804,240.113 302.226 C 240.698 301.526,241.292 299.738,241.894 296.864 C 242.391 294.492,243.152 291.480,243.585 290.169 C 244.427 287.618,245.147 260.349,244.507 255.226 L 244.233 253.029 216.618 253.029 L 189.004 253.029 189.178 266.236 M212.451 264.104 C 213.628 268.029,212.824 269.939,209.649 270.762 C 208.493 271.062,207.479 271.510,207.396 271.757 C 207.313 272.005,206.598 272.924,205.807 273.798 C 204.394 275.362,204.367 275.453,204.236 279.205 C 204.094 283.274,204.099 283.289,206.962 286.693 C 208.104 288.050,211.511 287.166,211.951 285.398 C 212.113 284.745,212.584 283.607,212.996 282.870 C 213.409 282.133,214.080 279.677,214.488 277.414 C 214.948 274.866,215.545 272.857,216.056 272.139 C 216.510 271.501,216.886 270.739,216.891 270.445 C 216.910 269.266,218.445 266.596,219.251 266.340 C 219.721 266.191,220.272 265.629,220.477 265.091 C 221.222 263.131,229.411 261.975,232.924 263.332 C 234.267 263.851,237.537 267.044,237.537 267.837 C 237.537 268.136,237.971 268.789,238.501 269.287 C 241.306 271.922,241.283 284.017,238.464 288.628 C 237.355 290.440,236.959 290.886,234.190 293.446 C 231.400 296.024,227.130 295.077,226.678 291.779 C 226.299 289.009,226.867 287.952,230.785 284.136 C 232.884 282.091,233.143 275.780,231.217 273.587 C 230.542 272.818,229.990 272.008,229.990 271.787 C 229.990 271.168,228.981 270.923,227.767 271.248 C 226.160 271.678,225.290 273.118,224.672 276.364 C 224.371 277.948,223.832 279.689,223.475 280.234 C 223.118 280.779,222.490 282.880,222.079 284.903 C 221.547 287.519,220.919 289.261,219.901 290.940 C 219.114 292.238,218.471 293.403,218.471 293.530 C 218.471 293.657,217.630 294.204,216.602 294.745 C 215.575 295.287,214.120 296.132,213.369 296.624 C 211.241 298.017,205.760 297.532,205.760 295.950 C 205.760 295.754,205.179 295.474,204.469 295.328 C 202.485 294.918,200.466 293.421,199.596 291.714 C 199.163 290.864,198.411 289.669,197.925 289.058 C 195.195 285.626,195.343 272.542,198.153 268.998 C 201.130 265.244,203.284 263.457,205.432 262.965 C 206.595 262.697,208.262 262.245,209.136 261.960 C 211.067 261.330,211.753 261.774,212.451 264.104 " stroke="none" fill="#fbf3cb" fill-rule="evenodd"></path><path id="path2" d="M162.066 0.794 C 162.066 1.594,160.002 1.757,151.043 1.666 C 150.333 1.659,149.752 1.829,149.752 2.045 C 149.752 2.260,149.409 2.328,148.991 2.195 C 148.141 1.926,147.567 2.561,147.567 3.774 C 147.567 4.479,147.299 4.569,145.184 4.576 C 139.306 4.597,138.135 4.736,138.384 5.383 C 138.524 5.748,138.455 5.897,138.214 5.749 C 137.962 5.593,137.878 5.886,137.994 6.522 L 138.180 7.547 134.929 7.614 C 133.141 7.651,131.187 7.662,130.586 7.639 C 129.880 7.611,129.494 7.798,129.494 8.167 C 129.494 8.482,129.294 8.739,129.050 8.739 C 128.802 8.739,128.698 9.089,128.814 9.533 C 129.102 10.632,128.920 10.686,124.563 10.799 C 122.022 10.865,120.563 11.073,120.285 11.408 C 119.985 11.770,119.992 11.917,120.309 11.917 C 120.554 11.917,120.755 11.708,120.755 11.453 C 120.755 11.198,120.888 11.124,121.052 11.287 C 121.216 11.451,121.019 11.826,120.615 12.121 C 120.211 12.417,119.987 12.830,120.116 13.039 C 120.429 13.545,118.809 13.930,117.424 13.678 C 115.415 13.314,113.588 14.271,113.817 15.569 C 114.012 16.674,113.996 16.684,111.823 16.733 C 107.731 16.826,107.911 16.758,107.739 18.272 C 107.539 20.017,107.863 19.854,104.497 19.905 C 101.702 19.948,101.618 19.978,101.789 20.873 C 102.067 22.325,101.549 22.720,99.391 22.703 C 97.234 22.686,95.941 23.427,95.674 24.832 C 95.562 25.422,95.151 25.652,94.038 25.744 C 92.597 25.864,92.552 25.914,92.552 27.415 L 92.552 28.962 89.675 29.079 C 86.838 29.194,86.795 29.212,86.597 30.359 C 86.446 31.231,86.105 31.600,85.237 31.832 C 83.916 32.185,83.431 32.781,83.422 34.062 C 83.416 34.985,83.239 35.023,78.759 35.058 C 78.274 35.062,77.971 35.219,78.088 35.407 C 78.204 35.596,78.110 35.750,77.878 35.750 C 77.647 35.750,77.458 36.181,77.458 36.708 C 77.458 37.516,77.209 37.708,75.869 37.934 C 74.392 38.184,74.280 38.295,74.280 39.507 C 74.280 40.726,74.173 40.829,72.668 41.070 C 71.462 41.263,71.073 41.501,71.124 42.014 C 71.305 43.799,71.117 44.091,69.791 44.091 C 69.071 44.091,68.240 44.315,67.946 44.588 C 67.518 44.985,67.467 44.985,67.691 44.588 C 68.118 43.831,67.099 43.994,66.449 44.786 C 66.136 45.169,66.010 45.231,66.169 44.924 C 66.361 44.554,66.302 44.463,65.993 44.653 C 65.738 44.811,65.632 45.109,65.759 45.314 C 66.083 45.838,64.645 47.566,64.051 47.368 C 63.432 47.162,62.603 48.022,62.425 49.057 C 62.253 50.054,62.401 49.956,60.783 50.141 C 59.538 50.283,59.396 50.425,59.350 51.574 C 59.287 53.139,59.303 53.123,57.597 53.328 C 56.321 53.481,56.211 53.598,56.265 54.752 C 56.318 55.895,56.026 56.212,55.073 56.041 C 53.911 55.833,53.227 56.530,53.227 57.922 C 53.228 59.342,53.186 59.384,51.764 59.384 C 50.387 59.384,50.291 59.466,50.142 60.775 C 49.956 62.402,50.054 62.253,49.057 62.425 C 47.986 62.610,46.785 63.976,46.994 64.772 C 47.199 65.557,45.827 66.575,45.575 65.825 C 45.452 65.460,45.252 65.475,44.752 65.888 C 43.972 66.531,43.828 68.120,44.588 67.691 C 44.985 67.467,44.985 67.518,44.588 67.946 C 44.315 68.240,44.091 69.148,44.091 69.964 C 44.091 71.344,44.020 71.434,43.058 71.259 C 41.711 71.015,40.914 71.713,40.914 73.137 C 40.914 74.269,40.546 74.467,38.603 74.382 C 38.315 74.370,38.180 74.459,38.302 74.581 C 38.424 74.703,38.326 75.040,38.085 75.331 C 37.844 75.621,37.749 76.123,37.873 76.447 C 38.149 77.168,37.468 77.644,36.147 77.651 C 35.081 77.657,35.074 77.681,34.994 81.529 C 34.957 83.347,34.912 83.416,33.778 83.416 C 32.526 83.416,31.778 84.298,31.778 85.773 C 31.778 86.523,30.773 86.874,29.295 86.641 C 29.131 86.615,28.997 87.652,28.997 88.945 C 28.997 92.130,28.783 92.552,27.167 92.552 C 25.859 92.552,25.819 92.600,25.819 94.141 C 25.819 95.289,25.654 95.730,25.223 95.730 C 23.481 95.730,22.764 96.745,22.720 99.268 C 22.682 101.531,22.338 102.030,20.924 101.875 C 20.119 101.787,20.051 101.974,19.933 104.609 C 19.785 107.899,19.906 107.675,18.211 107.804 C 16.764 107.914,16.826 107.746,16.733 111.780 C 16.687 113.774,16.622 113.912,15.827 113.704 C 15.278 113.560,15.064 113.632,15.231 113.902 C 15.396 114.169,15.198 114.248,14.698 114.117 C 13.839 113.893,13.809 114.002,13.718 117.659 C 13.668 119.694,13.471 120.066,12.406 120.145 C 11.389 120.220,10.725 120.714,10.725 121.397 C 10.725 121.730,10.918 121.874,11.162 121.723 C 11.479 121.527,11.479 121.676,11.162 122.270 C 10.922 122.718,10.725 124.427,10.725 126.067 L 10.725 129.048 9.235 129.172 C 7.569 129.310,7.726 128.773,7.608 134.739 L 7.547 137.799 6.219 138.048 C 4.743 138.325,4.612 138.885,4.587 145.035 C 4.579 146.893,4.438 147.615,4.106 147.487 C 3.118 147.108,1.966 148.143,2.225 149.177 C 2.361 149.717,2.262 150.412,2.006 150.720 C 1.750 151.029,1.573 151.518,1.612 151.808 C 2.075 155.227,1.520 162.463,0.794 162.463 C 0.006 162.463,0.000 162.728,0.000 198.610 C 0.000 234.492,0.006 234.757,0.794 234.757 C 1.571 234.757,1.940 240.037,1.595 246.221 C 1.541 247.191,1.655 247.474,2.010 247.254 C 2.371 247.032,2.431 247.222,2.241 247.980 C 2.099 248.545,2.161 249.118,2.377 249.252 C 2.612 249.397,2.666 249.220,2.510 248.813 C 2.332 248.351,2.398 248.224,2.713 248.419 C 2.969 248.577,3.178 248.958,3.178 249.266 C 3.178 249.601,3.418 249.734,3.774 249.597 C 4.101 249.472,4.376 249.522,4.384 249.709 C 4.770 258.854,4.989 259.773,6.641 259.192 C 7.398 258.925,7.495 259.367,7.613 263.648 C 7.674 265.857,7.844 267.589,7.991 267.499 C 8.138 267.408,8.362 267.605,8.490 267.936 C 8.641 268.331,9.067 268.476,9.723 268.357 C 10.766 268.168,10.994 269.611,10.801 275.188 C 10.777 275.905,10.909 276.398,11.096 276.282 C 11.283 276.167,11.543 276.351,11.674 276.691 C 11.804 277.031,12.055 277.221,12.231 277.112 C 13.072 276.592,13.620 277.699,13.680 280.045 C 13.748 282.694,14.419 283.699,15.924 283.409 C 16.607 283.278,16.683 283.516,16.683 285.799 C 16.683 287.193,16.865 288.447,17.087 288.584 C 17.309 288.721,17.388 289.000,17.262 289.203 C 17.136 289.407,17.670 289.573,18.447 289.573 L 19.861 289.573 19.908 292.254 C 19.934 293.729,19.946 295.032,19.935 295.151 C 19.925 295.270,20.475 295.409,21.159 295.461 C 22.759 295.583,22.703 295.489,22.726 298.088 C 22.737 299.313,22.904 300.413,23.098 300.533 C 23.291 300.652,23.329 300.945,23.182 301.182 C 23.007 301.465,23.212 301.537,23.771 301.391 C 24.242 301.268,24.628 301.348,24.628 301.569 C 24.628 301.791,24.896 301.869,25.223 301.743 C 25.691 301.564,25.819 301.853,25.819 303.091 C 25.819 304.626,25.855 304.667,27.202 304.667 C 28.754 304.667,28.911 304.982,29.092 308.441 C 29.192 310.366,29.235 310.431,30.487 310.551 C 31.472 310.646,31.778 310.864,31.778 311.471 C 31.778 312.923,32.533 313.803,33.778 313.803 C 34.898 313.803,35.475 316.318,34.993 319.096 C 34.961 319.276,35.119 319.310,35.343 319.172 C 35.567 319.034,35.750 319.098,35.750 319.315 C 35.750 319.531,36.241 319.765,36.842 319.835 C 37.704 319.934,37.909 320.141,37.816 320.819 C 37.751 321.291,37.888 321.795,38.121 321.939 C 38.353 322.082,38.453 322.346,38.342 322.525 C 38.232 322.704,38.363 322.842,38.634 322.832 C 40.605 322.761,40.865 322.937,40.989 324.429 C 41.100 325.777,41.226 325.924,42.304 325.975 C 42.959 326.007,43.630 326.051,43.793 326.075 C 43.957 326.098,44.091 326.576,44.091 327.136 C 44.091 327.697,44.288 328.523,44.528 328.972 C 44.846 329.565,44.846 329.714,44.528 329.518 C 44.266 329.356,44.091 329.566,44.091 330.042 C 44.091 330.479,44.315 330.977,44.588 331.148 C 45.072 331.451,45.238 331.492,46.475 331.618 C 46.803 331.651,47.108 332.124,47.153 332.671 C 47.328 334.772,47.396 334.915,48.130 334.724 C 48.530 334.619,48.858 334.714,48.858 334.936 C 48.858 335.157,49.126 335.235,49.454 335.110 C 50.034 334.887,50.163 335.223,50.156 336.945 C 50.153 337.450,50.579 337.712,51.690 337.889 C 53.123 338.119,53.227 338.227,53.227 339.475 C 53.227 340.249,53.437 340.840,53.724 340.875 C 53.997 340.908,54.399 340.977,54.618 341.028 C 54.836 341.078,55.309 341.140,55.669 341.166 C 56.147 341.199,56.308 341.561,56.265 342.502 C 56.210 343.720,56.291 343.800,57.696 343.917 C 59.151 344.037,59.518 344.645,59.234 346.470 C 59.209 346.632,59.903 346.878,60.776 347.018 C 62.322 347.265,62.631 347.745,62.433 349.586 C 62.419 349.714,62.621 349.839,62.882 349.864 C 65.343 350.104,66.580 350.956,65.825 351.890 C 65.443 352.362,65.447 352.423,65.842 352.186 C 66.132 352.012,66.430 352.117,66.553 352.437 C 66.688 352.790,67.505 353.021,68.824 353.082 C 71.238 353.192,71.202 353.169,71.199 354.601 C 71.196 355.888,71.668 356.291,73.188 356.300 C 74.125 356.305,74.280 356.468,74.280 357.449 C 74.280 358.550,75.023 359.577,75.728 359.451 C 76.988 359.224,77.458 359.551,77.458 360.652 C 77.458 361.294,77.664 361.948,77.916 362.103 C 78.224 362.293,78.270 362.203,78.057 361.829 C 77.799 361.378,77.841 361.366,78.273 361.768 C 78.572 362.045,79.814 362.264,81.088 362.264 L 83.368 362.264 83.491 363.754 C 83.605 365.123,83.727 365.259,85.005 365.442 C 86.234 365.617,86.410 365.790,86.520 366.931 L 86.644 368.222 89.598 368.222 L 92.552 368.222 92.552 369.811 C 92.552 371.357,92.589 371.400,93.919 371.400 C 95.417 371.400,95.693 371.646,95.813 373.086 C 95.856 373.615,96.079 374.070,96.308 374.096 C 96.536 374.122,97.795 374.263,99.106 374.409 C 101.916 374.723,101.767 374.630,101.826 376.089 C 101.874 377.241,101.880 377.244,104.651 377.325 C 107.853 377.418,107.619 377.315,107.732 378.681 C 107.780 379.265,107.970 379.742,108.154 379.742 C 108.337 379.742,108.375 379.925,108.236 380.149 C 108.098 380.373,108.132 380.530,108.312 380.499 C 108.492 380.468,109.849 380.463,111.326 380.489 L 114.013 380.536 113.798 381.758 C 113.668 382.494,113.735 382.886,113.967 382.743 C 114.178 382.612,114.495 382.752,114.673 383.053 C 114.850 383.354,115.531 383.601,116.187 383.603 C 120.007 383.612,120.253 383.674,120.151 384.608 C 119.998 386.011,120.688 386.286,124.727 386.434 C 128.878 386.585,129.161 386.658,128.845 387.482 C 128.500 388.381,129.586 389.469,130.884 389.525 C 131.539 389.553,133.449 389.597,135.128 389.624 C 138.135 389.672,138.177 389.686,138.004 390.641 C 137.721 392.202,138.887 392.680,143.263 392.797 C 147.001 392.897,148.170 393.229,148.157 394.190 C 148.153 394.436,147.977 394.369,147.766 394.042 C 147.554 393.714,147.378 393.647,147.375 393.894 C 147.371 394.140,147.671 394.587,148.040 394.887 C 148.497 395.257,148.617 395.273,148.414 394.935 C 148.003 394.251,148.489 394.312,149.213 395.035 C 149.691 395.513,151.019 395.631,155.937 395.631 C 161.801 395.631,162.066 395.665,162.066 396.425 C 162.066 397.214,162.330 397.219,198.411 397.219 C 234.492 397.219,234.757 397.214,234.757 396.425 C 234.757 395.729,243.719 395.101,246.773 395.584 C 246.936 395.609,247.071 395.457,247.071 395.246 C 247.071 395.034,247.321 394.957,247.626 395.074 C 247.932 395.192,248.302 395.094,248.448 394.857 C 248.594 394.620,248.908 394.546,249.145 394.692 C 249.409 394.855,249.462 394.773,249.281 394.481 C 249.054 394.113,248.835 394.121,248.326 394.519 C 247.736 394.980,247.724 394.962,248.211 394.340 C 248.511 393.957,248.988 393.644,249.271 393.644 C 249.553 393.644,249.844 393.469,249.917 393.255 C 249.990 393.041,251.753 392.844,253.834 392.818 C 257.883 392.767,258.782 392.429,258.882 390.918 C 258.966 389.658,258.723 389.734,262.966 389.649 C 267.394 389.561,268.123 389.282,268.123 387.672 L 268.123 386.495 271.202 386.461 C 276.175 386.408,277.698 385.828,277.082 384.222 C 276.955 383.891,277.263 383.701,277.967 383.678 C 282.756 383.518,283.198 383.328,283.211 381.430 C 283.217 380.583,283.373 380.536,286.220 380.536 C 288.121 380.536,289.133 380.390,288.977 380.139 C 288.842 379.921,288.898 379.742,289.101 379.742 C 289.303 379.742,289.468 379.429,289.467 379.047 C 289.460 377.399,289.529 377.358,292.354 377.358 C 293.883 377.358,295.149 377.224,295.167 377.061 C 295.185 376.897,295.245 376.361,295.299 375.869 C 295.433 374.660,295.510 374.615,297.618 374.477 C 298.631 374.411,299.576 374.240,299.719 374.098 C 299.862 373.955,300.229 373.934,300.535 374.052 C 300.842 374.170,301.120 374.023,301.153 373.727 C 301.186 373.430,301.255 373.009,301.306 372.790 C 301.356 372.572,301.419 372.181,301.444 371.921 C 301.469 371.661,302.160 371.393,302.979 371.325 C 304.384 371.209,304.476 371.118,304.591 369.730 L 304.713 368.258 307.371 368.141 C 309.983 368.026,310.036 368.001,310.404 366.752 C 310.724 365.668,310.987 365.463,312.192 365.362 C 313.513 365.251,313.613 365.146,313.728 363.754 L 313.851 362.264 316.314 362.264 C 318.786 362.264,320.235 361.366,319.551 360.259 C 319.284 359.826,320.964 359.068,321.494 359.383 C 321.990 359.676,322.529 358.661,322.536 357.422 C 322.542 356.476,322.712 356.340,324.032 356.231 C 325.440 356.114,325.528 356.026,325.645 354.618 L 325.768 353.128 327.829 353.081 C 328.963 353.055,330.038 353.060,330.218 353.091 C 330.398 353.122,330.414 352.934,330.252 352.673 C 330.054 352.353,330.167 352.278,330.600 352.445 C 331.071 352.626,331.176 352.521,330.995 352.050 C 330.829 351.617,330.903 351.504,331.223 351.702 C 331.484 351.864,331.672 351.848,331.641 351.668 C 331.429 350.449,331.724 349.911,332.473 350.149 C 332.910 350.288,333.267 350.230,333.267 350.021 C 333.267 349.812,333.576 349.666,333.953 349.697 C 334.400 349.733,334.659 349.441,334.697 348.858 C 334.730 348.366,334.779 347.786,334.806 347.567 C 334.834 347.349,335.221 347.170,335.667 347.170 C 336.787 347.170,337.939 345.962,337.846 344.886 C 337.775 344.054,338.587 343.750,340.434 343.918 C 340.553 343.928,340.691 343.389,340.742 342.718 C 340.864 341.123,341.074 340.833,341.979 341.008 C 342.393 341.087,343.002 340.853,343.333 340.487 C 343.946 339.809,343.992 339.680,343.992 338.630 C 343.992 338.259,344.367 338.034,344.985 338.034 C 345.531 338.034,345.978 337.844,345.978 337.613 C 345.978 337.382,346.157 337.303,346.375 337.438 C 346.613 337.585,346.773 337.097,346.773 336.227 C 346.773 335.046,346.894 334.818,347.419 335.019 C 347.774 335.155,348.338 335.040,348.671 334.764 C 349.005 334.487,349.369 334.308,349.480 334.366 C 349.592 334.425,349.734 333.998,349.795 333.417 C 349.988 331.609,350.266 331.251,351.325 331.443 C 351.873 331.542,352.441 331.429,352.587 331.192 C 352.740 330.945,352.670 330.875,352.422 331.028 C 352.185 331.174,351.879 331.112,351.742 330.890 C 351.605 330.668,351.733 330.487,352.026 330.487 C 352.320 330.487,352.595 330.174,352.637 329.791 C 352.888 327.496,353.272 326.112,353.668 326.075 C 353.917 326.052,354.479 326.007,354.916 325.976 C 355.534 325.931,355.737 325.589,355.833 324.429 C 355.928 323.288,356.137 322.925,356.727 322.880 C 357.151 322.847,357.721 322.802,357.994 322.781 C 358.718 322.723,359.073 322.093,359.080 320.854 C 359.084 320.173,359.311 319.743,359.682 319.712 C 360.792 319.620,360.930 319.564,361.521 318.967 C 361.845 318.640,362.128 317.880,362.148 317.279 C 362.168 316.678,362.203 315.662,362.224 315.020 C 362.259 314.004,362.431 313.838,363.555 313.729 C 364.734 313.616,364.857 313.475,364.969 312.115 C 365.071 310.887,365.245 310.625,365.962 310.620 C 366.441 310.616,367.100 310.444,367.428 310.237 C 368.034 309.854,368.085 309.596,368.173 306.479 C 368.222 304.738,368.242 304.714,369.712 304.592 C 371.026 304.483,371.217 304.333,371.333 303.316 C 371.490 301.936,372.158 301.181,373.097 301.318 C 373.930 301.441,373.806 301.809,374.045 298.510 C 374.280 295.268,374.138 295.531,375.719 295.420 C 376.865 295.340,377.499 294.656,377.325 293.686 C 376.903 291.329,377.406 289.573,378.504 289.573 C 379.853 289.573,380.125 288.903,380.134 285.568 C 380.139 283.511,380.204 283.356,381.033 283.430 C 382.656 283.574,383.317 282.545,383.317 279.875 C 383.317 277.880,383.458 277.362,384.111 276.954 C 384.675 276.602,384.906 276.589,384.906 276.907 C 384.906 277.215,385.099 277.196,385.520 276.846 C 386.011 276.439,386.031 276.270,385.620 276.009 C 385.204 275.746,385.208 275.681,385.643 275.676 C 385.958 275.673,386.087 275.423,385.954 275.074 C 385.828 274.747,385.878 274.479,386.066 274.479 C 386.253 274.479,386.398 274.255,386.388 273.982 C 386.239 269.985,386.526 268.175,387.284 268.321 C 388.867 268.626,389.275 267.567,389.275 263.152 C 389.275 259.155,389.300 259.038,390.126 259.197 C 390.594 259.287,391.264 259.200,391.616 259.003 C 392.274 258.635,392.315 258.331,392.409 253.128 C 392.463 250.154,393.042 248.198,393.519 249.382 C 393.670 249.760,393.899 249.665,394.336 249.041 C 394.847 248.311,394.856 248.121,394.392 247.828 C 393.949 247.547,393.969 247.479,394.496 247.474 C 395.465 247.465,395.553 246.927,395.608 240.694 C 395.656 235.226,395.917 233.999,396.903 234.608 C 397.077 234.715,397.219 234.544,397.219 234.227 C 397.219 233.910,397.487 233.547,397.814 233.422 C 398.337 233.221,398.408 228.926,398.398 198.209 C 398.391 175.724,398.249 163.310,398.002 163.463 C 397.790 163.594,397.617 163.428,397.617 163.094 C 397.617 162.761,397.393 162.570,397.120 162.670 C 395.917 163.111,395.692 162.219,395.582 156.574 C 395.522 153.449,395.326 150.802,395.148 150.692 C 394.969 150.581,394.926 150.325,395.052 150.122 C 395.177 149.918,395.107 149.752,394.895 149.752 C 394.683 149.752,394.560 149.439,394.622 149.057 C 394.771 148.136,394.123 147.368,393.199 147.368 C 392.537 147.368,391.984 141.382,392.416 138.898 C 392.447 138.718,392.289 138.684,392.065 138.822 C 391.842 138.960,391.658 138.899,391.658 138.685 C 391.658 138.471,391.122 138.178,390.467 138.034 L 389.275 137.772 389.228 133.732 C 389.202 131.510,389.202 129.558,389.228 129.394 C 389.254 129.230,388.649 129.096,387.885 129.096 L 386.495 129.096 386.447 126.812 C 386.422 125.556,386.431 124.368,386.467 124.171 C 386.504 123.975,386.404 123.528,386.245 123.178 C 386.086 122.828,385.932 122.055,385.904 121.460 C 385.854 120.423,385.303 119.343,385.303 120.283 C 385.303 122.016,383.313 119.698,383.267 117.910 C 383.240 116.853,383.200 115.675,383.179 115.293 C 383.128 114.362,381.859 113.478,380.925 113.722 C 380.245 113.900,380.161 113.644,380.056 111.081 C 379.941 108.256,379.934 108.240,378.649 107.862 C 377.436 107.505,377.356 107.368,377.309 105.578 C 377.282 104.531,377.214 103.496,377.160 103.277 C 377.105 103.059,377.038 102.650,377.011 102.369 C 376.984 102.087,376.390 101.814,375.691 101.760 C 374.110 101.640,374.266 101.906,374.141 99.106 C 374.032 96.649,373.496 95.768,372.095 95.743 C 371.657 95.735,371.383 95.400,371.354 94.836 C 371.329 94.345,371.284 93.674,371.255 93.347 C 371.220 92.957,370.685 92.708,369.712 92.627 C 368.242 92.506,368.222 92.482,368.173 90.741 C 368.092 87.862,368.040 87.470,367.693 87.123 C 367.349 86.779,367.147 86.726,365.863 86.643 C 365.271 86.605,365.064 86.250,364.969 85.104 C 364.857 83.744,364.734 83.604,363.555 83.490 C 362.410 83.380,362.257 83.223,362.204 82.100 C 362.143 80.841,362.043 79.431,361.928 78.207 C 361.892 77.828,361.502 77.564,360.973 77.560 C 359.244 77.548,359.086 77.448,359.080 76.365 C 359.073 75.127,358.718 74.497,357.994 74.439 C 357.721 74.417,357.140 74.372,356.703 74.340 C 356.076 74.293,355.909 73.995,355.909 72.932 C 355.909 71.503,355.338 71.028,353.940 71.297 C 353.235 71.433,353.128 71.251,353.128 69.911 C 353.128 69.063,352.937 68.251,352.704 68.106 C 352.470 67.962,352.367 67.616,352.474 67.337 C 352.581 67.058,352.459 66.603,352.203 66.326 C 351.840 65.933,351.861 65.892,352.296 66.140 C 352.682 66.360,352.761 66.309,352.553 65.973 C 352.388 65.706,351.990 65.588,351.669 65.711 C 350.734 66.070,349.676 65.275,349.752 64.271 C 349.832 63.206,348.939 62.394,347.666 62.376 C 346.912 62.365,346.773 62.146,346.773 60.973 C 346.773 60.209,346.639 59.604,346.475 59.630 C 346.311 59.656,346.043 59.633,345.879 59.580 C 345.310 59.396,344.784 59.285,344.243 59.235 C 343.881 59.202,343.745 58.790,343.837 58.003 C 343.985 56.729,343.026 55.869,341.704 56.091 C 341.184 56.178,340.964 55.859,340.814 54.802 C 340.656 53.685,340.432 53.388,339.722 53.356 C 337.758 53.267,337.682 53.228,337.844 52.386 C 338.025 51.445,336.682 50.084,335.551 50.063 C 334.969 50.052,334.722 49.545,334.771 48.461 C 334.776 48.352,334.529 48.032,334.222 47.750 C 333.915 47.468,333.664 47.339,333.664 47.462 C 333.664 47.586,333.114 47.402,332.440 47.054 C 331.693 46.667,331.299 46.208,331.427 45.872 C 331.574 45.489,331.434 45.400,330.963 45.576 C 330.392 45.790,330.366 45.733,330.795 45.205 C 331.469 44.375,330.726 44.091,327.872 44.091 L 325.720 44.091 325.720 42.502 C 325.720 40.918,325.716 40.914,324.156 40.914 C 322.691 40.914,322.585 40.834,322.468 39.656 C 322.365 38.616,322.102 38.317,320.953 37.932 C 319.969 37.602,319.549 37.216,319.513 36.608 C 319.486 36.136,319.441 35.585,319.414 35.384 C 319.387 35.183,318.784 35.025,318.073 35.032 C 313.886 35.075,313.926 35.090,313.648 33.351 C 313.500 32.424,313.185 31.773,312.902 31.809 C 311.396 32.002,310.626 31.732,310.626 31.011 C 310.626 29.603,309.541 28.997,307.022 28.997 C 304.585 28.997,304.467 28.902,304.576 27.017 C 304.620 26.251,303.935 25.833,302.624 25.825 C 301.622 25.820,300.864 24.921,301.285 24.240 C 301.473 23.936,300.321 22.735,300.038 22.939 C 299.963 22.994,299.856 23.017,299.801 22.990 C 299.747 22.963,298.833 22.896,297.770 22.841 C 295.830 22.740,295.031 22.180,295.412 21.188 C 295.524 20.895,295.408 20.655,295.153 20.655 C 294.898 20.655,294.775 20.518,294.878 20.350 C 294.982 20.183,293.885 19.993,292.441 19.929 C 289.382 19.792,289.174 19.707,289.375 18.667 C 289.610 17.446,288.125 16.683,285.512 16.683 C 283.154 16.683,282.887 16.407,283.154 14.249 C 283.200 13.882,280.354 13.491,279.226 13.708 C 277.864 13.970,276.859 13.579,277.123 12.889 C 277.245 12.573,277.152 12.314,276.917 12.314 C 276.682 12.314,276.604 12.017,276.743 11.653 C 276.914 11.208,276.845 11.086,276.532 11.279 C 276.277 11.437,276.068 11.377,276.068 11.146 C 276.068 10.914,275.878 10.725,275.647 10.725 C 275.416 10.725,275.336 10.903,275.471 11.121 C 275.634 11.384,275.366 11.384,274.674 11.121 C 274.101 10.903,272.393 10.725,270.878 10.725 C 267.995 10.725,267.871 10.623,268.157 8.485 C 268.237 7.885,267.041 7.667,263.252 7.593 C 258.726 7.504,258.927 7.569,258.847 6.178 C 258.771 4.857,258.214 4.703,253.202 4.611 C 250.941 4.570,248.955 4.400,248.788 4.233 C 248.621 4.067,248.792 4.048,249.168 4.192 C 249.560 4.343,249.851 4.267,249.851 4.015 C 249.851 3.773,249.678 3.575,249.466 3.575 C 249.255 3.575,249.196 3.278,249.335 2.914 C 249.506 2.470,249.437 2.347,249.124 2.540 C 248.869 2.698,248.659 2.655,248.659 2.444 C 248.659 2.233,248.302 2.154,247.865 2.268 C 247.421 2.384,247.071 2.280,247.071 2.032 C 247.071 1.788,246.936 1.610,246.773 1.636 C 243.719 2.118,234.757 1.490,234.757 0.794 C 234.757 0.006,234.492 0.000,198.411 0.000 C 162.330 0.000,162.066 0.006,162.066 0.794 M215.293 3.562 C 217.805 3.762,221.291 4.288,223.039 4.729 C 224.786 5.170,228.916 5.789,232.215 6.104 C 236.742 6.536,238.623 6.885,239.887 7.530 C 240.884 8.039,243.357 8.641,246.004 9.019 C 249.307 9.492,250.956 9.939,252.433 10.764 C 253.768 11.510,255.399 11.995,257.407 12.243 C 259.525 12.504,260.831 12.908,261.898 13.632 C 262.726 14.194,264.724 14.947,266.340 15.307 C 267.955 15.666,269.480 16.205,269.729 16.505 C 270.256 17.140,274.162 18.669,275.258 18.669 C 275.669 18.669,276.520 19.101,277.147 19.629 C 277.773 20.156,279.305 20.854,280.549 21.179 C 281.794 21.504,283.362 22.232,284.034 22.798 C 284.706 23.364,286.228 24.109,287.416 24.454 C 288.651 24.813,289.748 25.404,289.978 25.834 C 290.199 26.247,291.137 26.807,292.062 27.077 C 292.987 27.347,294.369 28.060,295.134 28.662 C 295.899 29.263,297.373 30.129,298.411 30.586 C 299.449 31.044,300.298 31.571,300.298 31.759 C 300.298 31.946,301.384 32.601,302.712 33.214 C 304.040 33.827,305.304 34.660,305.521 35.065 C 305.738 35.471,306.751 36.160,307.774 36.599 C 308.796 37.037,309.776 37.652,309.952 37.966 C 310.127 38.279,310.932 38.875,311.739 39.289 C 312.547 39.703,313.654 40.524,314.201 41.112 C 314.747 41.701,315.842 42.515,316.634 42.921 C 317.427 43.328,318.184 43.944,318.317 44.291 C 318.450 44.638,319.181 45.181,319.940 45.499 C 320.700 45.816,321.512 46.431,321.743 46.864 C 321.975 47.297,322.589 47.878,323.108 48.155 C 324.621 48.964,332.144 55.800,338.579 62.214 C 340.335 63.963,346.541 70.835,347.684 72.294 C 348.454 73.277,349.520 74.528,350.052 75.074 C 350.585 75.621,351.326 76.658,351.698 77.379 C 352.071 78.100,352.642 78.793,352.967 78.917 C 353.293 79.042,353.931 79.874,354.386 80.766 C 354.841 81.657,355.643 82.724,356.168 83.137 C 356.693 83.550,357.462 84.554,357.877 85.367 C 358.292 86.180,358.937 87.099,359.310 87.409 C 359.684 87.719,360.318 88.739,360.719 89.675 C 361.120 90.611,361.734 91.487,362.084 91.621 C 362.433 91.755,363.131 92.796,363.634 93.935 C 364.138 95.074,364.894 96.345,365.314 96.761 C 365.735 97.177,366.415 98.322,366.825 99.305 C 367.236 100.288,368.057 101.629,368.650 102.284 C 369.244 102.939,369.849 104.047,369.996 104.746 C 370.143 105.445,370.775 106.661,371.400 107.448 C 372.026 108.235,372.656 109.451,372.801 110.150 C 372.946 110.848,373.556 112.046,374.156 112.810 C 374.756 113.575,375.471 115.136,375.745 116.279 C 376.019 117.422,376.762 119.011,377.396 119.809 C 378.031 120.608,378.550 121.562,378.550 121.930 C 378.550 123.016,379.799 126.425,380.635 127.624 C 381.061 128.234,381.664 129.827,381.976 131.164 C 382.288 132.502,382.981 134.415,383.517 135.417 C 384.052 136.419,384.673 138.424,384.896 139.872 C 385.282 142.371,385.831 143.937,387.108 146.177 C 387.420 146.723,387.680 147.885,387.687 148.759 C 387.706 151.045,388.678 155.315,389.683 157.520 C 390.321 158.921,390.701 161.040,391.132 165.608 C 391.461 169.085,392.154 173.451,392.714 175.571 C 394.620 182.789,394.486 216.035,392.524 222.642 C 392.050 224.236,391.453 228.147,391.125 231.810 C 390.677 236.794,390.361 238.570,389.685 239.895 C 388.681 241.864,387.703 246.120,387.693 248.568 C 387.689 249.668,387.281 251.022,386.533 252.424 C 385.887 253.636,385.168 255.857,384.897 257.481 C 384.631 259.074,384.000 261.092,383.494 261.966 C 382.989 262.840,382.289 264.802,381.938 266.326 C 381.587 267.850,380.980 269.459,380.588 269.901 C 379.858 270.725,378.550 274.420,378.550 275.658 C 378.550 276.038,378.113 276.821,377.578 277.398 C 377.043 277.974,376.292 279.475,375.907 280.733 C 375.523 281.990,374.803 283.518,374.308 284.129 C 373.813 284.740,373.194 285.991,372.932 286.910 C 372.671 287.828,372.151 288.937,371.776 289.374 C 370.876 290.425,369.811 292.560,369.811 293.313 C 369.811 293.644,369.280 294.520,368.631 295.259 C 367.982 295.998,367.113 297.392,366.700 298.357 C 366.286 299.321,365.636 300.369,365.256 300.685 C 364.875 301.001,364.160 302.160,363.666 303.261 C 363.173 304.362,362.298 305.697,361.722 306.226 C 361.146 306.756,360.675 307.420,360.675 307.702 C 360.675 307.984,360.179 308.802,359.573 309.519 C 358.966 310.237,358.236 311.288,357.950 311.855 C 357.664 312.421,356.730 313.650,355.875 314.586 C 355.019 315.522,354.320 316.503,354.320 316.767 C 354.320 317.031,353.786 317.722,353.135 318.303 C 352.483 318.884,351.695 319.969,351.383 320.714 C 351.072 321.459,350.463 322.181,350.029 322.319 C 349.596 322.456,349.020 323.103,348.749 323.756 C 348.479 324.410,348.037 325.074,347.768 325.233 C 347.499 325.392,346.384 326.594,345.289 327.905 C 342.370 331.399,332.510 341.231,327.706 345.438 C 325.412 347.447,322.999 349.604,322.344 350.232 C 321.688 350.860,320.564 351.614,319.846 351.908 C 319.127 352.202,318.362 352.775,318.144 353.181 C 317.927 353.588,317.031 354.286,316.154 354.734 C 315.277 355.181,314.455 355.819,314.327 356.151 C 314.200 356.484,313.136 357.297,311.963 357.959 C 310.791 358.621,309.831 359.304,309.831 359.476 C 309.831 359.649,309.161 360.100,308.342 360.479 C 307.522 360.857,306.316 361.671,305.660 362.287 C 305.005 362.903,303.639 363.760,302.626 364.193 C 301.612 364.625,300.667 365.167,300.525 365.396 C 300.383 365.625,299.336 366.279,298.197 366.849 C 297.059 367.418,295.765 368.223,295.321 368.636 C 294.878 369.049,293.745 369.659,292.803 369.992 C 291.860 370.324,290.556 371.045,289.903 371.594 C 289.251 372.143,288.240 372.706,287.656 372.846 C 286.222 373.190,284.382 374.119,283.416 374.988 C 282.979 375.382,281.617 375.963,280.389 376.281 C 279.161 376.599,277.785 377.230,277.332 377.683 C 276.880 378.135,275.829 378.632,274.997 378.787 C 273.207 379.119,270.155 380.375,269.315 381.125 C 268.987 381.418,267.589 381.878,266.207 382.147 C 264.826 382.417,263.046 383.078,262.252 383.617 C 261.294 384.267,259.866 384.720,258.011 384.965 C 256.314 385.188,254.264 385.805,252.802 386.533 C 251.475 387.193,249.777 387.817,249.028 387.919 C 243.676 388.647,241.842 389.039,239.921 389.865 C 238.287 390.567,236.398 390.916,232.438 391.247 C 229.428 391.499,225.310 392.155,222.904 392.767 L 218.669 393.843 198.610 393.843 L 178.550 393.843 174.315 392.767 C 171.914 392.157,167.785 391.498,164.782 391.246 C 161.143 390.941,158.924 390.553,157.696 390.008 C 155.775 389.155,150.852 388.083,148.854 388.083 C 148.181 388.083,146.500 387.533,145.119 386.860 C 143.737 386.187,141.195 385.390,139.468 385.089 C 137.546 384.753,135.785 384.172,134.927 383.589 C 134.155 383.065,132.394 382.419,131.012 382.153 C 129.631 381.887,127.875 381.249,127.110 380.735 C 126.346 380.221,124.647 379.502,123.337 379.136 C 122.026 378.771,120.328 378.052,119.563 377.538 C 118.798 377.025,117.396 376.432,116.447 376.221 C 115.498 376.010,114.336 375.485,113.865 375.055 C 112.827 374.108,110.678 372.989,109.895 372.989 C 109.581 372.989,108.425 372.371,107.326 371.615 C 106.227 370.858,104.822 370.120,104.203 369.974 C 103.585 369.828,102.632 369.304,102.085 368.810 C 101.539 368.315,100.167 367.448,99.035 366.882 C 97.904 366.317,96.856 365.657,96.707 365.417 C 96.559 365.176,95.634 364.635,94.654 364.215 C 93.673 363.794,92.141 362.826,91.250 362.063 C 90.358 361.300,89.399 360.675,89.118 360.675 C 88.837 360.675,88.020 360.172,87.303 359.556 C 86.585 358.941,85.328 358.033,84.508 357.538 C 83.689 357.043,83.019 356.510,83.019 356.353 C 83.019 356.196,82.231 355.569,81.269 354.961 C 80.306 354.352,79.113 353.423,78.617 352.895 C 78.122 352.368,77.486 351.936,77.205 351.936 C 76.924 351.936,75.991 351.266,75.131 350.447 C 74.272 349.628,72.556 348.153,71.319 347.170 C 66.157 343.069,48.874 325.263,48.300 323.455 C 48.161 323.019,47.596 322.456,47.042 322.204 C 46.489 321.952,45.762 321.090,45.427 320.288 C 45.092 319.485,44.386 318.490,43.859 318.075 C 43.331 317.660,42.900 317.074,42.900 316.773 C 42.900 316.471,42.296 315.635,41.559 314.915 C 40.821 314.194,39.880 312.979,39.469 312.214 C 39.057 311.450,38.230 310.341,37.632 309.750 C 37.034 309.159,36.544 308.343,36.544 307.937 C 36.544 307.531,35.985 306.674,35.301 306.033 C 34.618 305.391,33.644 303.944,33.138 302.817 C 32.631 301.690,32.014 300.643,31.766 300.489 C 31.518 300.336,30.967 299.399,30.541 298.407 C 30.116 297.414,29.237 295.998,28.588 295.259 C 27.939 294.520,27.408 293.644,27.408 293.313 C 27.408 292.408,26.197 290.238,25.363 289.650 C 24.958 289.364,24.628 288.778,24.628 288.346 C 24.628 287.240,23.541 284.771,22.627 283.797 C 22.202 283.346,21.479 281.824,21.018 280.416 C 20.558 279.007,19.863 277.556,19.475 277.191 C 19.087 276.825,18.646 275.753,18.496 274.807 C 18.346 273.862,17.921 272.537,17.553 271.864 C 15.952 268.941,15.495 267.793,15.085 265.661 C 14.845 264.415,14.191 262.722,13.632 261.897 C 12.954 260.899,12.505 259.526,12.287 257.788 C 11.925 254.910,11.365 253.161,10.498 252.203 C 10.184 251.857,9.768 250.605,9.572 249.421 C 9.376 248.238,8.997 245.929,8.730 244.290 C 8.463 242.651,7.891 240.614,7.460 239.762 C 6.903 238.661,6.515 236.526,6.119 232.380 C 5.813 229.172,5.193 225.132,4.742 223.403 C 2.592 215.168,2.597 182.407,4.749 174.181 C 5.206 172.433,5.831 168.266,6.137 164.921 C 6.511 160.836,6.900 158.524,7.323 157.879 C 7.994 156.854,8.873 153.045,9.330 149.182 C 9.501 147.735,10.053 146.038,10.761 144.783 C 11.546 143.393,11.994 141.924,12.164 140.188 C 12.332 138.474,12.784 136.976,13.543 135.624 C 14.164 134.516,14.925 132.529,15.233 131.207 C 15.542 129.885,16.253 128.021,16.814 127.063 C 17.375 126.106,18.092 124.331,18.407 123.119 C 18.723 121.907,19.432 120.252,19.983 119.440 C 20.534 118.628,21.104 117.257,21.250 116.394 C 21.396 115.530,22.037 114.167,22.675 113.363 C 23.314 112.560,24.102 111.008,24.427 109.914 C 24.751 108.820,25.371 107.677,25.804 107.374 C 26.236 107.071,26.808 106.070,27.073 105.149 C 27.338 104.229,28.035 102.850,28.621 102.085 C 29.206 101.321,30.091 99.891,30.586 98.908 C 31.082 97.925,31.619 97.031,31.780 96.922 C 31.941 96.812,32.616 95.650,33.281 94.340 C 33.945 93.029,34.854 91.736,35.301 91.467 C 35.747 91.198,36.305 90.263,36.540 89.389 C 36.776 88.514,37.319 87.611,37.748 87.382 C 38.177 87.152,38.868 86.300,39.285 85.488 C 39.701 84.676,40.524 83.565,41.112 83.019 C 41.701 82.473,42.508 81.400,42.906 80.636 C 43.304 79.871,44.002 78.934,44.456 78.554 C 44.911 78.174,45.283 77.598,45.283 77.275 C 45.283 76.952,45.837 76.280,46.513 75.782 C 47.190 75.283,48.008 74.366,48.332 73.743 C 48.911 72.628,50.630 70.665,55.503 65.554 C 62.558 58.154,66.505 54.364,71.102 50.571 C 72.741 49.219,74.628 47.566,75.295 46.897 C 75.963 46.228,76.685 45.680,76.901 45.680 C 77.116 45.680,77.956 45.055,78.766 44.290 C 79.577 43.525,80.423 42.900,80.645 42.900 C 80.868 42.900,81.806 42.209,82.730 41.364 C 83.653 40.519,84.981 39.536,85.680 39.179 C 86.380 38.822,87.095 38.282,87.269 37.979 C 87.444 37.675,88.452 37.022,89.509 36.528 C 90.567 36.033,91.521 35.396,91.630 35.112 C 91.856 34.523,94.341 32.969,95.057 32.969 C 95.318 32.968,96.060 32.513,96.706 31.958 C 97.353 31.402,98.604 30.623,99.487 30.226 C 100.370 29.829,101.569 29.056,102.151 28.507 C 102.733 27.958,103.830 27.393,104.589 27.250 C 105.348 27.108,106.414 26.546,106.960 26.001 C 107.505 25.456,108.857 24.741,109.964 24.412 C 111.072 24.083,112.523 23.355,113.190 22.794 C 113.856 22.233,115.314 21.534,116.429 21.240 C 117.543 20.946,119.107 20.269,119.903 19.735 C 120.699 19.202,122.244 18.555,123.337 18.297 C 124.429 18.039,125.999 17.386,126.825 16.845 C 127.651 16.304,129.578 15.579,131.107 15.233 C 132.636 14.888,134.548 14.157,135.356 13.608 C 136.386 12.910,137.720 12.501,139.813 12.243 C 141.838 11.993,143.441 11.514,144.791 10.754 C 145.897 10.131,147.748 9.512,148.961 9.360 C 153.232 8.822,155.931 8.214,157.476 7.441 C 158.588 6.885,160.722 6.500,164.824 6.116 C 170.580 5.577,173.628 5.067,175.629 4.308 C 178.236 3.321,205.785 2.802,215.293 3.562 M3.509 148.419 C 3.436 148.596,3.143 148.776,2.858 148.817 C 2.450 148.877,2.441 148.771,2.815 148.320 C 3.291 147.746,3.758 147.812,3.509 148.419 M89.905 150.943 C 89.905 152.582,89.975 153.252,90.061 152.433 C 90.147 151.614,90.147 150.273,90.061 149.454 C 89.975 148.635,89.905 149.305,89.905 150.943 M277.548 149.641 C 278.253 149.729,279.505 149.730,280.329 149.644 C 281.153 149.558,280.576 149.487,279.047 149.485 C 277.517 149.483,276.843 149.553,277.548 149.641 M319.086 152.135 C 319.086 153.337,319.161 153.828,319.252 153.227 C 319.343 152.627,319.343 151.643,319.252 151.043 C 319.161 150.442,319.086 150.933,319.086 152.135 M238.432 153.525 C 238.436 154.399,238.518 154.710,238.613 154.216 C 238.708 153.722,238.704 153.007,238.605 152.627 C 238.505 152.247,238.427 152.651,238.432 153.525 M113.549 181.109 C 114.065 181.558,114.676 181.927,114.907 181.927 C 115.395 181.927,115.372 181.907,113.803 180.988 L 112.612 180.290 113.549 181.109 M152.067 228.302 C 172.020 228.359,204.552 228.359,224.361 228.302 C 244.170 228.245,227.845 228.198,188.083 228.198 C 148.322 228.198,132.114 228.245,152.067 228.302 M264.737 260.179 C 264.737 276.018,264.786 282.498,264.846 274.578 C 264.906 266.658,264.906 253.699,264.846 245.780 C 264.786 237.860,264.737 244.340,264.737 260.179 M128.430 252.929 C 135.382 252.990,146.643 252.990,153.455 252.929 C 160.266 252.868,154.578 252.818,140.814 252.819 C 127.051 252.819,121.478 252.868,128.430 252.929 M204.299 252.929 C 211.251 252.990,222.512 252.990,229.324 252.929 C 236.135 252.868,230.447 252.818,216.683 252.819 C 202.920 252.819,197.347 252.868,204.299 252.929 M188.847 264.151 C 188.847 268.630,188.905 270.462,188.976 268.222 C 189.046 265.983,189.046 262.319,188.976 260.079 C 188.905 257.840,188.847 259.672,188.847 264.151 M240.445 278.848 C 240.445 280.268,240.517 280.849,240.605 280.139 C 240.693 279.429,240.693 278.267,240.605 277.557 C 240.517 276.847,240.445 277.428,240.445 278.848 M195.956 279.245 C 195.956 280.665,196.028 281.246,196.117 280.536 C 196.205 279.826,196.205 278.664,196.117 277.954 C 196.028 277.244,195.956 277.825,195.956 279.245 M218.173 313.301 C 219.211 313.383,220.909 313.383,221.946 313.301 C 222.984 313.219,222.135 313.152,220.060 313.152 C 217.984 313.152,217.135 313.219,218.173 313.301 " stroke="none" fill="#d9ba5a" fill-rule="evenodd"></path><path id="path3" d="M115.339 121.539 C 113.881 121.705,112.205 122.221,111.168 122.821 C 110.214 123.374,108.793 123.942,108.009 124.083 C 107.225 124.225,105.885 124.926,105.030 125.641 C 104.175 126.355,102.940 127.279,102.285 127.694 C 99.543 129.432,93.744 136.831,93.744 138.592 C 93.744 139.167,93.301 140.288,92.761 141.083 C 90.206 144.843,90.194 157.013,92.741 160.874 C 93.245 161.639,93.782 162.975,93.934 163.843 C 94.090 164.732,94.760 166.067,95.467 166.897 C 96.158 167.707,97.527 169.380,98.510 170.613 C 99.494 171.847,100.655 173.049,101.092 173.284 C 101.529 173.519,102.118 174.037,102.401 174.435 C 102.684 174.834,103.756 175.586,104.784 176.107 C 105.812 176.628,107.368 177.429,108.242 177.887 C 110.404 179.019,119.700 180.836,121.748 180.526 C 133.015 178.823,136.705 176.965,143.819 169.414 C 144.436 168.759,145.176 167.686,145.462 167.031 C 145.749 166.375,146.463 165.124,147.049 164.250 C 150.689 158.821,150.700 143.931,147.068 137.863 C 146.471 136.865,145.750 135.511,145.467 134.856 C 145.184 134.201,144.531 133.217,144.015 132.671 C 141.772 130.297,138.429 127.110,138.181 127.110 C 138.032 127.110,137.187 126.506,136.304 125.768 C 135.420 125.030,134.023 124.299,133.200 124.145 C 132.376 123.990,130.964 123.431,130.060 122.901 C 127.478 121.388,121.504 120.835,115.339 121.539 M127.908 123.499 C 129.111 124.133,131.088 124.911,132.301 125.228 C 133.561 125.557,134.950 126.247,135.541 126.838 C 136.110 127.407,137.044 127.990,137.616 128.134 C 138.189 128.277,138.917 128.898,139.235 129.512 C 139.553 130.126,140.174 130.744,140.616 130.884 C 141.057 131.024,141.689 131.661,142.019 132.298 C 142.348 132.936,143.061 133.749,143.603 134.104 C 144.145 134.458,144.588 135.095,144.588 135.517 C 144.588 136.481,145.621 138.553,146.678 139.710 C 147.318 140.410,147.552 141.432,147.816 144.675 C 147.999 146.921,148.216 149.039,148.298 149.381 C 148.739 151.219,147.404 161.428,146.593 162.427 C 146.134 162.993,145.509 163.997,145.204 164.658 C 144.900 165.319,143.833 166.915,142.832 168.203 C 141.832 169.492,141.013 170.783,141.013 171.072 C 141.013 171.362,140.776 171.599,140.487 171.599 C 140.197 171.599,138.936 172.394,137.683 173.367 C 136.431 174.339,135.015 175.257,134.536 175.406 C 134.056 175.556,133.114 176.158,132.440 176.745 C 129.889 178.969,110.387 179.204,109.168 177.025 C 108.715 176.215,106.771 175.174,105.713 175.174 C 105.283 175.174,104.187 174.459,103.277 173.585 C 102.368 172.711,101.455 171.996,101.249 171.996 C 101.043 171.996,100.698 171.532,100.482 170.965 C 100.266 170.397,99.717 169.836,99.262 169.717 C 98.760 169.585,98.135 168.803,97.676 167.731 C 97.234 166.700,96.587 165.876,96.125 165.755 C 95.650 165.631,95.329 165.209,95.324 164.700 C 95.312 163.478,93.504 158.528,92.775 157.723 C 91.114 155.887,91.629 145.586,93.522 142.797 C 94.081 141.973,94.539 140.922,94.540 140.461 C 94.545 138.913,95.365 136.643,95.920 136.643 C 96.609 136.643,97.911 134.817,98.265 133.352 C 98.424 132.693,98.924 132.097,99.501 131.878 C 100.034 131.675,100.874 130.893,101.367 130.140 C 101.946 129.257,102.780 128.617,103.719 128.336 C 104.585 128.076,105.600 127.339,106.231 126.512 C 106.981 125.529,107.603 125.124,108.364 125.124 C 109.998 125.124,112.048 124.437,112.973 123.580 C 114.839 121.851,124.681 121.797,127.908 123.499 M271.698 137.657 C 270.715 137.966,268.391 138.498,266.534 138.839 C 259.951 140.046,259.071 140.262,257.548 141.041 C 256.701 141.475,255.204 142.072,254.220 142.368 C 253.237 142.664,251.092 143.571,249.454 144.383 C 240.673 148.738,239.303 150.180,240.115 154.212 C 240.676 156.994,240.645 156.958,241.884 156.318 C 242.499 156.000,244.236 155.398,245.744 154.980 C 247.253 154.562,249.345 153.829,250.394 153.351 C 251.443 152.873,254.029 152.145,256.141 151.732 C 258.252 151.320,260.963 150.572,262.165 150.069 C 265.565 148.648,292.132 148.648,295.531 150.069 C 296.733 150.572,299.598 151.308,301.898 151.704 C 304.198 152.101,307.058 152.877,308.253 153.430 C 309.449 153.982,311.410 154.651,312.612 154.918 C 313.813 155.184,315.218 155.667,315.733 155.990 C 317.161 156.888,317.577 156.128,317.577 152.621 C 317.577 149.622,317.557 149.562,316.385 149.007 C 315.730 148.696,314.518 147.913,313.692 147.267 C 312.867 146.620,311.268 145.741,310.140 145.312 C 309.012 144.884,307.627 144.204,307.062 143.801 C 306.496 143.399,305.056 142.799,303.861 142.469 C 302.666 142.138,300.616 141.423,299.305 140.880 C 297.994 140.337,294.955 139.606,292.552 139.256 C 290.149 138.906,287.050 138.265,285.665 137.830 C 282.564 136.858,274.551 136.758,271.698 137.657 M283.416 139.218 C 284.727 139.535,288.280 140.009,291.312 140.272 C 296.129 140.688,296.949 140.863,297.805 141.656 C 298.424 142.230,299.904 142.808,301.825 143.227 C 303.498 143.592,305.245 144.235,305.708 144.657 C 306.171 145.079,307.667 145.762,309.031 146.175 C 310.418 146.595,311.761 147.281,312.076 147.731 C 312.386 148.174,313.274 148.837,314.049 149.205 C 315.422 149.857,316.187 151.042,316.187 152.519 C 316.187 154.213,311.510 154.248,309.633 152.567 C 308.546 151.595,307.964 151.427,303.967 150.932 C 302.021 150.691,299.946 150.179,299.244 149.766 C 296.609 148.216,293.987 147.986,278.848 147.979 C 263.642 147.971,261.448 148.170,258.735 149.804 C 258.051 150.217,256.089 150.732,254.376 150.949 C 250.538 151.435,249.868 151.632,248.834 152.576 C 246.957 154.290,241.018 154.387,241.668 152.693 C 241.799 152.350,241.907 151.734,241.907 151.324 C 241.907 150.408,243.396 148.957,244.336 148.957 C 244.716 148.957,245.382 148.505,245.817 147.953 C 246.274 147.371,247.450 146.698,248.608 146.354 C 249.708 146.027,251.108 145.348,251.719 144.846 C 252.330 144.343,254.026 143.642,255.487 143.288 C 256.948 142.935,258.825 142.207,259.658 141.671 C 260.932 140.850,262.022 140.619,266.534 140.209 C 269.484 139.941,272.433 139.490,273.088 139.208 C 274.711 138.509,280.505 138.514,283.416 139.218 M114.995 230.276 C 112.844 230.800,112.810 230.969,112.810 241.125 C 112.810 249.403,112.890 250.614,113.467 251.093 C 114.004 251.539,119.093 251.675,141.457 251.837 C 166.857 252.022,168.840 252.085,169.489 252.734 C 170.120 253.366,170.212 254.842,170.447 268.027 C 170.760 285.568,171.969 295.160,174.759 302.240 C 175.206 303.373,175.571 304.582,175.571 304.926 C 175.571 305.271,176.465 307.406,177.557 309.671 C 178.649 311.935,179.543 313.861,179.543 313.950 C 179.543 314.038,180.885 316.120,182.526 318.575 C 185.109 322.442,186.680 324.380,189.028 326.594 C 189.329 326.878,190.229 327.747,191.027 328.526 C 191.826 329.305,193.233 330.365,194.154 330.883 C 195.075 331.401,195.829 331.980,195.829 332.171 C 195.829 332.361,196.678 332.879,197.716 333.321 C 198.754 333.762,200.586 334.628,201.787 335.244 C 202.989 335.860,205.389 336.653,207.121 337.006 C 208.853 337.359,211.419 338.003,212.823 338.437 C 216.132 339.459,225.765 339.572,228.565 338.621 C 229.545 338.288,232.334 337.577,234.764 337.039 C 237.194 336.502,239.661 335.722,240.246 335.306 C 240.832 334.890,242.002 334.262,242.846 333.910 C 243.690 333.558,244.992 332.733,245.739 332.077 C 246.487 331.421,247.246 330.884,247.428 330.884 C 249.108 330.884,256.222 321.691,257.795 317.488 C 258.265 316.231,258.821 314.997,259.030 314.744 C 259.643 314.006,260.999 308.696,261.400 305.463 C 261.604 303.824,261.944 301.321,262.156 299.901 C 263.153 293.211,263.369 285.254,263.266 258.987 L 263.158 231.380 261.768 230.686 C 260.428 230.016,117.696 229.618,114.995 230.276 M260.129 231.430 L 261.370 231.678 261.367 260.129 C 261.363 295.168,260.800 306.012,258.758 310.427 C 258.253 311.519,257.626 313.307,257.366 314.399 C 256.708 317.166,256.170 318.570,255.767 318.570 C 255.578 318.570,254.888 319.631,254.233 320.928 C 253.578 322.226,252.637 323.733,252.142 324.278 C 251.647 324.823,250.258 326.349,249.057 327.669 C 247.855 328.988,246.640 330.073,246.357 330.079 C 246.074 330.085,245.386 330.546,244.828 331.104 C 244.270 331.662,242.893 332.479,241.768 332.921 C 240.643 333.363,239.364 334.046,238.928 334.439 C 238.020 335.257,235.405 335.889,231.380 336.264 C 229.851 336.407,227.997 336.774,227.260 337.080 C 225.444 337.835,217.774 337.812,214.896 337.044 C 213.694 336.723,210.872 336.253,208.623 335.999 C 205.101 335.602,204.337 335.380,203.101 334.397 C 202.311 333.770,200.943 333.141,200.060 333.000 C 199.177 332.859,198.087 332.366,197.638 331.905 C 197.190 331.443,196.107 330.604,195.233 330.040 C 193.005 328.603,186.130 321.809,185.351 320.274 C 184.995 319.573,184.257 318.554,183.712 318.009 C 183.167 317.463,182.721 316.786,182.720 316.503 C 182.719 316.220,182.004 314.936,181.131 313.650 C 180.258 312.365,179.543 310.988,179.543 310.591 C 179.543 309.601,178.753 307.859,177.728 306.591 C 177.182 305.914,176.622 304.203,176.170 301.824 C 175.781 299.783,175.036 297.080,174.514 295.817 C 173.782 294.047,173.475 292.271,173.173 288.071 C 172.958 285.074,172.605 281.412,172.389 279.933 C 172.173 278.454,171.980 272.556,171.961 266.825 C 171.942 261.094,171.808 255.511,171.663 254.419 C 171.193 250.869,172.705 251.044,142.528 251.043 C 126.411 251.043,116.045 250.894,115.411 250.653 L 114.385 250.262 114.491 241.038 L 114.598 231.813 115.591 231.537 C 116.827 231.193,258.422 231.089,260.129 231.430 M187.447 251.953 L 186.097 252.862 186.106 263.571 C 186.111 270.307,186.305 275.533,186.630 277.656 C 186.913 279.513,187.387 283.200,187.681 285.848 C 188.079 289.416,188.473 291.168,189.203 292.608 C 189.744 293.677,190.403 295.351,190.666 296.329 C 190.929 297.306,191.481 298.579,191.893 299.156 C 192.304 299.734,192.991 301.024,193.419 302.023 C 193.847 303.022,194.565 304.069,195.014 304.349 C 195.462 304.629,195.829 305.031,195.829 305.242 C 195.829 305.940,200.622 310.228,201.402 310.228 C 201.822 310.228,202.441 310.648,202.777 311.160 C 203.483 312.238,204.696 312.856,207.206 313.419 C 208.187 313.639,209.488 314.187,210.097 314.637 C 213.042 316.814,230.387 316.455,230.387 314.216 C 230.387 314.054,231.561 313.604,232.995 313.215 C 234.913 312.696,235.821 312.214,236.428 311.394 C 236.881 310.780,237.726 310.082,238.305 309.842 C 238.884 309.602,239.707 308.742,240.134 307.931 C 240.560 307.119,241.211 306.230,241.580 305.955 C 241.948 305.680,242.629 304.429,243.094 303.174 C 243.558 301.920,244.277 300.179,244.691 299.305 C 245.105 298.431,245.639 296.107,245.876 294.141 C 246.113 292.175,246.613 288.779,246.987 286.594 C 247.706 282.390,248.017 255.666,247.373 253.374 C 246.709 251.013,247.101 251.043,216.583 251.043 L 188.797 251.043 187.447 251.953 M245.222 252.581 C 246.105 253.314,246.165 280.009,245.303 288.381 C 243.953 301.488,238.576 310.621,231.009 312.658 C 230.123 312.897,228.735 313.431,227.923 313.845 C 225.994 314.829,213.633 314.981,212.286 314.037 C 211.845 313.728,210.420 313.170,209.119 312.796 C 206.713 312.104,204.530 311.145,204.171 310.624 C 204.062 310.465,203.240 309.964,202.345 309.510 C 201.450 309.057,200.412 308.220,200.040 307.651 C 199.667 307.083,198.958 306.433,198.465 306.208 C 197.627 305.827,196.420 304.072,193.307 298.709 C 192.068 296.574,191.699 295.503,189.684 288.183 C 187.975 281.973,186.657 254.127,188.008 252.773 C 189.054 251.726,243.970 251.541,245.222 252.581 M205.164 264.346 C 195.077 269.092,195.077 290.504,205.164 294.293 C 213.878 297.566,218.289 294.174,221.299 281.883 C 223.917 271.190,226.149 268.509,230.646 270.654 C 233.896 272.204,234.921 283.204,232.011 285.309 C 229.185 287.353,227.224 291.706,228.538 293.020 C 229.407 293.889,231.931 293.470,233.366 292.220 C 236.484 289.503,236.958 288.671,238.605 283.019 C 240.632 276.059,236.296 265.374,230.940 264.131 C 227.289 263.284,223.057 264.093,221.590 265.919 C 221.230 266.367,220.469 267.269,219.897 267.925 C 218.557 269.462,217.530 272.215,215.823 278.847 C 213.680 287.170,212.835 288.383,209.182 288.380 C 204.984 288.377,202.897 285.595,202.905 280.014 C 202.912 274.312,204.443 271.643,208.838 269.669 L 211.321 268.554 211.321 266.772 C 211.321 263.965,208.410 262.818,205.164 264.346 M209.172 265.493 C 209.688 266.837,208.732 268.670,207.329 269.027 C 204.840 269.660,202.531 272.427,201.963 275.458 L 201.672 277.005 200.935 276.095 C 199.595 274.440,200.471 268.866,202.156 268.331 C 202.522 268.215,203.519 267.405,204.371 266.533 C 206.023 264.841,208.700 264.261,209.172 265.493 M232.416 266.318 C 232.861 267.073,233.583 267.804,234.021 267.943 C 235.399 268.380,236.425 271.429,235.898 273.522 C 235.434 275.363,234.757 276.239,234.756 274.999 C 234.756 273.331,233.252 270.302,232.154 269.756 C 229.297 268.338,224.500 269.243,223.379 271.412 C 223.015 272.116,222.477 272.870,222.181 273.088 C 221.643 273.487,220.480 278.182,220.460 280.040 C 220.454 280.586,219.991 282.016,219.432 283.217 C 218.873 284.419,218.174 286.434,217.880 287.695 C 217.303 290.171,215.556 292.595,213.749 293.428 C 211.400 294.511,204.411 293.735,203.968 292.342 C 203.838 291.931,203.160 291.114,202.461 290.527 C 200.777 289.111,200.085 286.800,200.661 284.514 C 201.133 282.640,201.787 281.888,201.787 283.220 C 201.787 288.290,208.715 291.526,213.152 288.530 C 215.090 287.221,215.075 287.246,215.897 283.867 C 216.272 282.323,216.800 280.696,217.069 280.252 C 217.339 279.807,217.785 278.371,218.060 277.061 C 219.381 270.762,219.522 270.458,222.795 266.861 L 224.538 264.945 228.072 264.945 L 231.606 264.945 232.416 266.318 M236.147 284.324 C 236.147 286.671,235.252 289.442,234.406 289.715 C 234.053 289.828,233.281 290.236,232.691 290.621 C 230.445 292.088,229.642 290.302,231.526 288.029 C 233.690 285.419,234.263 284.415,234.579 282.687 C 234.986 280.463,236.147 281.676,236.147 284.324 M65.513 351.487 C 65.732 351.895,65.783 352.371,65.627 352.544 C 65.470 352.717,65.566 352.730,65.839 352.573 C 66.122 352.410,66.336 352.497,66.336 352.774 C 66.336 353.041,66.423 353.173,66.530 353.066 C 66.794 352.802,65.819 350.752,65.428 350.748 C 65.256 350.746,65.295 351.079,65.513 351.487 M330.487 352.206 C 329.606 353.138,329.589 353.206,330.341 352.806 C 330.806 352.558,331.292 352.083,331.420 351.749 C 331.732 350.937,331.646 350.979,330.487 352.206 M248.211 394.317 C 247.912 394.686,247.875 394.864,248.129 394.711 C 248.383 394.559,248.667 394.569,248.759 394.734 C 248.851 394.900,248.876 394.823,248.815 394.564 C 248.754 394.305,248.917 394.006,249.178 393.900 C 249.500 393.769,249.508 393.697,249.205 393.676 C 248.958 393.659,248.511 393.947,248.211 394.317 " stroke="none" fill="#646454" fill-rule="evenodd"></path><path id="path4" d="M112.461 120.786 C 110.655 121.141,108.838 122.106,108.838 122.710 C 108.838 122.902,107.900 123.280,106.753 123.551 C 105.360 123.879,104.073 124.558,102.880 125.593 C 98.933 129.017,96.545 131.301,96.535 131.662 C 96.529 131.871,95.914 132.675,95.169 133.449 C 94.371 134.277,93.570 135.688,93.223 136.877 C 92.899 137.989,92.190 139.377,91.648 139.961 C 89.281 142.515,89.448 159.555,91.868 162.430 C 92.392 163.053,93.053 164.394,93.338 165.411 C 93.623 166.428,94.233 167.566,94.693 167.940 C 95.154 168.314,95.761 169.067,96.043 169.613 C 97.021 171.513,102.684 176.763,103.756 176.763 C 104.168 176.763,104.948 177.205,105.489 177.746 C 106.847 179.105,107.539 179.422,109.831 179.740 C 110.924 179.892,112.711 180.479,113.803 181.046 C 116.597 182.494,125.011 182.627,126.939 181.254 C 127.596 180.786,129.289 180.194,130.701 179.938 C 132.495 179.614,133.957 179.013,135.561 177.943 C 136.823 177.101,138.181 176.309,138.579 176.183 C 138.978 176.056,139.503 175.514,139.747 174.979 C 139.992 174.443,140.823 173.740,141.595 173.418 C 142.552 173.018,142.999 172.573,142.999 172.020 C 142.999 171.531,143.547 170.852,144.379 170.311 C 145.243 169.750,146.062 168.715,146.567 167.545 C 147.012 166.517,147.661 165.516,148.010 165.321 C 148.612 164.984,149.752 161.504,149.752 160.005 C 149.752 159.623,150.154 158.544,150.645 157.609 C 151.965 155.098,151.974 146.805,150.660 144.305 C 150.176 143.385,149.576 141.462,149.327 140.031 C 148.986 138.070,148.634 137.241,147.897 136.661 C 147.359 136.238,146.751 135.283,146.545 134.539 C 146.340 133.794,145.533 132.489,144.754 131.637 C 141.465 128.048,140.354 126.996,139.240 126.420 C 138.593 126.085,137.731 125.388,137.325 124.872 C 136.918 124.355,136.197 123.924,135.721 123.913 C 134.818 123.893,133.143 123.084,131.284 121.770 C 129.446 120.470,117.301 119.835,112.461 120.786 M125.480 121.558 C 127.304 121.795,129.041 122.304,130.060 122.901 C 130.964 123.431,132.376 123.990,133.200 124.145 C 134.023 124.299,135.420 125.030,136.304 125.768 C 137.187 126.506,138.032 127.110,138.181 127.110 C 138.429 127.110,141.772 130.297,144.015 132.671 C 144.531 133.217,145.184 134.201,145.467 134.856 C 145.750 135.511,146.471 136.865,147.068 137.863 C 150.700 143.931,150.689 158.821,147.049 164.250 C 146.463 165.124,145.749 166.375,145.462 167.031 C 145.176 167.686,144.436 168.759,143.819 169.414 C 136.705 176.965,133.015 178.823,121.748 180.526 C 119.700 180.836,110.404 179.019,108.242 177.887 C 107.368 177.429,105.812 176.628,104.784 176.107 C 103.756 175.586,102.684 174.834,102.401 174.435 C 102.118 174.037,101.529 173.519,101.092 173.284 C 100.655 173.049,99.494 171.847,98.510 170.613 C 97.527 169.380,96.158 167.707,95.467 166.897 C 94.760 166.067,94.090 164.732,93.934 163.843 C 93.782 162.975,93.245 161.639,92.741 160.874 C 90.194 157.013,90.206 144.843,92.761 141.083 C 93.301 140.288,93.744 139.167,93.744 138.592 C 93.744 136.831,99.543 129.432,102.285 127.694 C 102.940 127.279,104.175 126.355,105.030 125.641 C 105.885 124.926,107.225 124.225,108.009 124.083 C 108.793 123.942,110.214 123.374,111.168 122.821 C 113.743 121.330,119.686 120.806,125.480 121.558 M270.279 136.399 C 268.515 136.651,266.614 137.157,266.055 137.524 C 265.495 137.891,263.452 138.397,261.516 138.649 C 258.973 138.980,257.434 139.425,255.978 140.248 C 254.870 140.875,253.016 141.592,251.858 141.840 C 250.540 142.123,249.321 142.705,248.597 143.396 C 247.962 144.003,246.629 144.705,245.635 144.955 C 244.642 145.205,243.411 145.828,242.899 146.340 C 242.388 146.851,241.374 147.686,240.647 148.194 C 238.776 149.501,238.742 149.591,238.735 153.212 C 238.726 158.202,241.137 159.586,244.706 156.638 C 245.044 156.359,246.648 155.851,248.272 155.509 C 251.163 154.901,253.029 154.055,253.029 153.353 C 253.029 153.159,254.593 152.873,256.504 152.717 C 260.000 152.432,263.618 151.610,266.931 150.349 C 270.230 149.094,288.603 149.344,291.903 150.689 C 294.615 151.794,297.154 152.320,301.887 152.755 C 304.131 152.961,305.130 153.250,305.935 153.927 C 306.563 154.455,308.276 155.108,310.082 155.510 C 311.775 155.887,313.617 156.524,314.177 156.927 C 317.446 159.279,319.053 157.837,318.884 152.702 L 318.769 149.185 317.378 148.273 C 316.614 147.771,315.439 146.852,314.768 146.230 C 314.098 145.609,312.852 144.970,312.001 144.810 C 311.151 144.650,309.878 144.014,309.174 143.395 C 308.344 142.666,307.081 142.108,305.585 141.807 C 304.316 141.552,302.649 140.936,301.882 140.440 C 300.058 139.260,299.599 139.135,295.138 138.601 C 292.821 138.324,290.984 137.882,290.371 137.453 C 288.288 135.996,277.179 135.413,270.279 136.399 M285.665 137.830 C 287.050 138.265,290.149 138.906,292.552 139.256 C 294.955 139.606,297.994 140.337,299.305 140.880 C 300.616 141.423,302.666 142.138,303.861 142.469 C 305.056 142.799,306.496 143.399,307.062 143.801 C 307.627 144.204,309.012 144.884,310.140 145.312 C 311.268 145.741,312.867 146.620,313.692 147.267 C 314.518 147.913,315.730 148.696,316.385 149.007 C 317.557 149.562,317.577 149.622,317.577 152.621 C 317.577 156.128,317.161 156.888,315.733 155.990 C 315.218 155.667,313.813 155.184,312.612 154.918 C 311.410 154.651,309.449 153.982,308.253 153.430 C 307.058 152.877,304.198 152.101,301.898 151.704 C 299.598 151.308,296.733 150.572,295.531 150.069 C 292.132 148.648,265.565 148.648,262.165 150.069 C 260.963 150.572,258.252 151.320,256.141 151.732 C 254.029 152.145,251.443 152.873,250.394 153.351 C 249.345 153.829,247.253 154.562,245.744 154.980 C 244.236 155.398,242.499 156.000,241.884 156.318 C 240.645 156.958,240.676 156.994,240.115 154.212 C 239.303 150.180,240.673 148.738,249.454 144.383 C 251.092 143.571,253.237 142.664,254.220 142.368 C 255.204 142.072,256.701 141.475,257.548 141.041 C 259.071 140.262,259.951 140.046,266.534 138.839 C 268.391 138.498,270.715 137.966,271.698 137.657 C 274.551 136.758,282.564 136.858,285.665 137.830 M113.610 229.097 C 111.341 230.235,111.234 230.778,111.227 241.168 C 111.222 249.825,111.281 250.631,111.980 251.495 L 112.740 252.433 140.349 252.632 C 155.534 252.741,168.107 252.979,168.289 253.161 C 168.471 253.342,168.737 260.313,168.882 268.652 C 169.149 284.129,169.482 288.525,170.621 291.605 C 170.976 292.563,171.515 295.131,171.819 297.311 C 172.392 301.411,172.858 302.966,174.022 304.667 C 174.396 305.214,174.920 306.643,175.186 307.845 C 175.452 309.047,176.062 310.566,176.542 311.221 C 177.022 311.877,177.725 313.201,178.104 314.164 C 178.483 315.128,179.156 316.379,179.600 316.945 C 180.044 317.511,181.010 318.868,181.746 319.960 C 182.482 321.053,183.545 322.623,184.109 323.451 C 184.672 324.279,185.554 325.147,186.068 325.382 C 186.582 325.616,187.190 326.218,187.418 326.719 C 187.647 327.221,188.369 327.947,189.023 328.333 C 189.676 328.719,190.296 329.360,190.400 329.756 C 190.504 330.153,191.074 330.662,191.668 330.887 C 192.261 331.113,193.550 332.005,194.532 332.869 C 195.527 333.745,196.927 334.554,197.696 334.698 C 198.455 334.841,199.524 335.373,200.072 335.881 C 200.714 336.476,202.151 337.037,204.109 337.459 C 205.782 337.818,207.865 338.443,208.739 338.846 C 213.394 340.997,230.903 340.860,233.565 338.652 C 233.893 338.380,235.501 337.930,237.140 337.651 C 240.267 337.120,241.072 336.826,242.032 335.865 C 242.354 335.543,243.619 334.837,244.844 334.296 C 246.069 333.754,247.071 333.127,247.071 332.902 C 247.071 332.677,247.646 332.196,248.348 331.832 C 250.123 330.915,254.451 326.413,255.459 324.436 C 255.920 323.534,256.611 322.515,256.995 322.172 C 257.380 321.830,257.997 320.745,258.368 319.762 C 258.738 318.779,259.491 317.317,260.041 316.514 C 260.712 315.533,261.153 314.165,261.384 312.343 C 261.573 310.852,262.170 308.283,262.711 306.635 C 264.344 301.650,264.545 296.842,264.547 262.750 C 264.548 227.419,264.722 229.612,261.855 228.816 C 258.907 227.997,115.260 228.269,113.610 229.097 M261.768 230.686 L 263.158 231.380 263.266 258.987 C 263.369 285.254,263.153 293.211,262.156 299.901 C 261.944 301.321,261.604 303.824,261.400 305.463 C 260.999 308.696,259.643 314.006,259.030 314.744 C 258.821 314.997,258.265 316.231,257.795 317.488 C 256.222 321.691,249.108 330.884,247.428 330.884 C 247.246 330.884,246.487 331.421,245.739 332.077 C 244.992 332.733,243.690 333.558,242.846 333.910 C 242.002 334.262,240.832 334.890,240.246 335.306 C 239.661 335.722,237.194 336.502,234.764 337.039 C 232.334 337.577,229.545 338.288,228.565 338.621 C 225.765 339.572,216.132 339.459,212.823 338.437 C 211.419 338.003,208.853 337.359,207.121 337.006 C 205.389 336.653,202.989 335.860,201.787 335.244 C 200.586 334.628,198.754 333.762,197.716 333.321 C 196.678 332.879,195.829 332.361,195.829 332.171 C 195.829 331.980,195.075 331.401,194.154 330.883 C 193.233 330.365,191.826 329.305,191.027 328.526 C 190.229 327.747,189.329 326.878,189.028 326.594 C 186.680 324.380,185.109 322.442,182.526 318.575 C 180.885 316.120,179.543 314.038,179.543 313.950 C 179.543 313.861,178.649 311.935,177.557 309.671 C 176.465 307.406,175.571 305.271,175.571 304.926 C 175.571 304.582,175.206 303.373,174.759 302.240 C 171.969 295.160,170.760 285.568,170.447 268.027 C 170.212 254.842,170.120 253.366,169.489 252.734 C 168.840 252.085,166.857 252.022,141.457 251.837 C 119.093 251.675,114.004 251.539,113.467 251.093 C 112.443 250.243,112.478 231.997,113.505 231.086 C 114.656 230.066,113.378 230.084,188.083 230.037 C 256.168 229.994,260.458 230.032,261.768 230.686 M190.392 252.187 C 187.532 252.552,187.683 251.826,187.715 265.078 C 187.747 278.015,188.133 282.547,189.684 288.183 C 191.699 295.503,192.068 296.574,193.307 298.709 C 196.420 304.072,197.627 305.827,198.465 306.208 C 198.958 306.433,199.667 307.083,200.040 307.651 C 200.412 308.220,201.450 309.057,202.345 309.510 C 203.240 309.964,204.062 310.465,204.171 310.624 C 204.530 311.145,206.713 312.104,209.119 312.796 C 210.420 313.170,211.845 313.728,212.286 314.037 C 213.633 314.981,225.994 314.829,227.923 313.845 C 228.735 313.431,230.123 312.897,231.009 312.658 C 238.576 310.621,243.953 301.488,245.303 288.381 C 246.165 280.009,246.105 253.314,245.222 252.581 C 244.513 251.992,194.716 251.634,190.392 252.187 M244.158 253.162 C 244.340 253.345,244.489 261.299,244.489 270.838 L 244.489 288.183 243.422 291.559 C 242.836 293.416,242.043 296.443,241.661 298.286 C 241.267 300.186,240.657 301.944,240.254 302.348 C 239.862 302.740,239.291 303.661,238.984 304.396 C 237.887 307.020,232.962 311.166,230.472 311.561 C 229.535 311.710,228.016 312.105,227.095 312.440 C 224.189 313.496,217.979 313.619,214.300 312.694 C 212.552 312.255,210.272 311.768,209.234 311.612 C 207.980 311.424,206.779 310.878,205.659 309.987 C 204.731 309.249,203.400 308.454,202.700 308.221 C 202.001 307.987,201.327 307.476,201.202 307.084 C 201.078 306.693,200.365 306.043,199.618 305.641 C 198.853 305.229,198.154 304.488,198.017 303.944 C 197.884 303.412,197.158 302.170,196.405 301.184 C 195.651 300.197,195.035 299.203,195.035 298.976 C 195.035 298.383,193.425 295.055,192.765 294.282 C 192.458 293.923,191.971 291.957,191.682 289.913 C 191.394 287.869,190.784 284.945,190.328 283.416 C 188.971 278.870,188.168 262.802,188.932 255.491 L 189.185 253.070 190.620 252.908 C 193.398 252.595,243.831 252.834,244.158 253.162 M209.136 262.154 C 208.699 262.337,207.280 262.703,205.982 262.967 C 204.419 263.285,203.260 263.801,202.551 264.494 C 201.962 265.070,201.147 265.733,200.740 265.968 C 200.333 266.203,199.700 266.982,199.334 267.699 C 198.968 268.416,198.300 269.395,197.849 269.874 C 195.530 272.343,195.661 286.826,198.020 288.783 C 198.349 289.057,198.953 290.036,199.362 290.960 C 200.173 292.794,202.088 294.470,204.206 295.201 C 204.951 295.458,206.025 296.008,206.592 296.424 C 208.065 297.502,210.463 297.734,212.129 296.960 C 216.566 294.898,218.292 293.705,219.083 292.155 C 219.529 291.281,220.196 290.111,220.565 289.555 C 220.934 288.999,221.593 286.810,222.029 284.689 C 222.465 282.568,223.089 280.427,223.415 279.930 C 223.740 279.432,224.252 277.855,224.552 276.423 C 225.253 273.079,226.222 271.439,227.666 271.150 C 228.883 270.907,229.990 271.181,229.990 271.727 C 229.990 271.914,230.516 272.667,231.160 273.400 C 233.300 275.837,233.085 282.393,230.800 284.381 C 225.513 288.981,225.205 294.737,230.245 294.737 C 231.996 294.737,233.962 294.070,233.962 293.476 C 233.962 293.289,234.526 292.794,235.214 292.375 C 236.372 291.671,237.641 289.863,239.410 286.395 C 240.447 284.362,240.455 272.963,239.421 270.904 C 236.426 264.942,233.605 262.959,228.113 262.959 C 222.393 262.959,218.506 265.392,217.226 269.775 C 216.949 270.724,216.395 271.954,215.994 272.509 C 215.579 273.084,214.942 275.348,214.514 277.765 C 214.101 280.100,213.414 282.685,212.988 283.508 C 212.561 284.331,212.016 285.497,211.775 286.097 C 211.372 287.104,211.166 287.190,209.154 287.190 C 207.202 287.190,206.897 287.074,206.285 286.097 C 205.909 285.497,205.264 284.671,204.852 284.263 C 203.519 282.942,203.992 275.166,205.478 273.976 C 206.087 273.488,206.802 272.660,207.067 272.136 C 207.404 271.466,208.132 271.036,209.517 270.687 C 212.642 269.899,213.775 267.408,212.436 264.269 C 211.451 261.962,210.718 261.492,209.136 262.154 M210.438 264.372 C 211.127 264.855,211.321 265.381,211.321 266.772 L 211.321 268.554 208.838 269.669 C 200.335 273.488,200.609 288.374,209.182 288.380 C 212.835 288.383,213.680 287.170,215.823 278.847 C 217.530 272.215,218.557 269.462,219.897 267.925 C 220.469 267.269,221.230 266.367,221.590 265.919 C 223.057 264.093,227.289 263.284,230.940 264.131 C 236.296 265.374,240.632 276.059,238.605 283.019 C 236.958 288.671,236.484 289.503,233.366 292.220 C 231.931 293.470,229.407 293.889,228.538 293.020 C 227.224 291.706,229.185 287.353,232.011 285.309 C 234.921 283.204,233.896 272.204,230.646 270.654 C 226.149 268.509,223.917 271.190,221.299 281.883 C 219.125 290.760,217.488 293.390,213.321 294.705 C 201.889 298.313,193.505 284.044,199.260 270.771 C 201.531 265.532,207.344 262.205,210.438 264.372 " stroke="none" fill="#a09881" fill-rule="evenodd"></path></g></svg>